<svg width="1915" height="434" viewBox="0 0 1915 434" fill="none" xmlns="http://www.w3.org/2000/svg">
<path fill-rule="evenodd" clip-rule="evenodd" d="M1328.52 0.489571L1328.5 1.01613L1325.81 84.4747H1328.84L1327.5 50.2305L1328.5 50.1915L1329.85 84.9552L1329.88 85.4747H1329.36H1325.29H1324.77L1324.79 84.9585L1327.48 1.51043L1238.15 3.29602V47.384L1239.32 49.711H1320.77H1321.27V50.211V55.6287V56.1364L1320.76 56.1286L1232.22 54.7742L1231.73 54.7667V54.2743V4.66033H1153.68V50.211V50.711H1153.18H1108.58L1112.02 74.4309V52.4683V51.9683H1112.52H1225.46L1225.5 52.9664L1189.82 56.0869V84.9747V85.4747H1189.32H1115.29L1113.75 85.8291H1257.03V58.3375V57.8375H1257.53H1260.69H1261.19V58.3375V90.8439V91.3296L1260.71 91.3437L1230.01 92.2328L1229.58 124.198L1295.92 123.302L1295.95 124.301L1260.74 126.083V160.784L1327.11 162.129L1327.64 162.14L1327.59 162.667L1327.14 168.536L1327.11 168.998H1326.64H1299.61L1301.4 214.981L1301.42 215.5H1300.9H1195.64H1195.14V215V166.741H1191.16L1190.27 213.655L1190.26 214.161L1189.75 214.145L1101.21 211.436L1100.74 211.422L1100.73 210.945L1099.93 164.849L1094.5 164.927V210.937H1093.5V164.435V163.942L1093.99 163.935L1099.91 163.849L1099.82 159.026L1099.82 158.517H1100.32H1150.42V91.7468V91.4378L1150.7 91.2996L1155.21 89.0422L1155.9 88.6972L1155.94 89.4683L1157.27 121.057L1221.86 122.85L1222.22 122.86L1222.32 123.206L1223.68 127.721L1223.88 128.388L1223.18 128.365L1157.27 126.124L1155.96 158.517H1251.2H1251.87L1251.69 159.154L1250.78 162.315L1250.68 162.672L1250.31 162.677L1100.93 164.835L1101.72 210.452L1189.28 213.13L1190.17 166.231L1190.18 165.741H1190.67H1195.64H1196.14V166.241V214.5H1300.38L1298.59 168.517L1298.57 167.998H1299.09H1326.18L1326.56 163.118L1260.23 161.774L1259.74 161.764V161.274V125.608V125.132L1260.21 125.108L1268.95 124.666L1229.08 125.205L1228.56 125.212L1228.57 124.698L1229.02 91.74L1229.03 91.2609L1229.51 91.2471L1260.19 90.3582V58.8375H1258.03V86.3291V86.8291H1257.53H1109.36L1109.25 85.8419L1115.12 84.4875L1115.17 84.4747H1115.23H1188.82V55.6287V55.1705L1189.27 55.1306L1214 52.9683H1113.02V81.3629L1112.03 81.4346L1107.51 50.2827L1107.43 49.711H1108H1152.68V4.16033V3.66033H1153.18H1232.23H1232.73V4.16033V53.7819L1320.27 55.121V50.711H1239.01H1238.7L1238.56 50.4347L1237.21 47.7258L1237.15 47.6202V47.5021V2.80591V2.31581L1237.64 2.30601L1327.99 0.5001L1328.52 0.489571ZM1100.91 163.835L1249.92 161.683L1250.54 159.517H1155.44H1154.92L1154.94 158.997L1156.29 125.587L1156.31 125.091L1156.81 125.108L1222.52 127.342L1221.47 123.84L1156.78 122.044L1156.31 122.031L1156.29 121.565L1154.97 90.2817L1151.42 92.0559V159.017V159.517H1150.92H1100.83L1100.91 163.835ZM1302.3 89.038V123.802H1301.3V89.038H1302.3ZM1336.6 162.8L1334.79 167.766L1333.85 167.424L1335.66 162.458L1336.6 162.8ZM953.5 243.984L953.517 244.51L952.99 244.5L862.643 242.694L862.153 242.684V242.194V197.498V197.38L862.205 197.274L863.561 194.565L863.699 194.289H864.008H945.272V189.879L857.732 191.218V240.84V241.34H857.232H778.178H777.678V240.84V195.289H733.004H732.426L732.509 194.717L737.026 163.565L738.021 163.637V192.032H838.999L814.273 189.869L813.817 189.829V189.371V160.525H740.232H740.175L740.119 160.513L734.247 159.158L734.359 158.171H882.529H883.029V158.671V186.162H885.191V154.642L854.507 153.753L854.028 153.739L854.021 153.26L853.57 120.302L853.562 119.788L854.076 119.795L893.952 120.334L885.214 119.892L884.739 119.868V119.392V83.7257V83.2357L885.229 83.2258L951.557 81.8821L951.182 77.0021H924.089H923.569L923.589 76.4827L925.376 30.5H821.141V78.7595V79.2595H820.641H815.672H815.181L815.172 78.769L814.278 31.8697L726.719 34.5485L725.926 80.1653L875.308 82.3228L875.68 82.3282L875.782 82.6853L876.685 85.8457L876.868 86.4831H876.205H780.957L782.271 118.876L848.18 116.635L848.876 116.612L848.676 117.279L847.321 121.794L847.217 122.14L846.856 122.15L782.271 123.943L780.936 155.532L780.903 156.303L780.213 155.958L775.695 153.7L775.419 153.562V153.253V86.4831H725.324H724.816L724.824 85.9744L724.908 81.1508L718.993 81.0653L718.5 81.0582V80.5654V34.0633H719.5V80.0725L724.926 80.1509L725.728 34.0546L725.736 33.5781L726.213 33.5635L814.753 30.8546L815.259 30.8392L815.268 31.3449L816.162 78.2595H820.141V30V29.5H820.641H925.896H926.416L926.395 30.0194L924.609 76.0021H951.645H952.108L952.143 76.4637L952.595 82.3329L952.636 82.8605L952.107 82.8712L885.739 84.2157V118.917L920.952 120.699L920.92 121.698L854.576 120.802L855.015 152.767L885.706 153.656L886.191 153.67V154.156V186.662V187.162H885.691H882.529H882.029V186.662V159.171H738.752L740.289 159.525H814.317H814.817V160.025V188.913L850.499 192.034L850.456 193.032H737.521H737.021V192.532V170.569L733.582 194.289H778.178H778.678V194.789V240.34H856.732V190.726V190.233L857.224 190.226L945.765 188.871L946.272 188.864V189.371V194.789V195.289H945.772H864.317L863.153 197.616V241.704L952.483 243.49L949.79 160.041L949.773 159.525H950.29H954.355H954.875L954.855 160.045L953.52 194.294L1037.88 195.187V156.462H998.625H996.695L998.383 155.525L1002.45 153.267L1002.56 153.205H1002.69H1069.5V124.859H995.512V155.962V156.462H995.012H926.799H926.299V155.962V121.198V120.708L926.79 120.698L996.788 119.353L998.107 82.8713H961.131H960.781L960.661 82.5423L958.854 77.576L958.61 76.9051H959.324H1039.69V35.446L942.138 31.4049L942.153 30.4053L1026.41 29.5L1026.42 30.5L961.335 31.1993L1040.21 34.4667L1040.69 34.4865V34.9662V77.4051V77.9051H1040.19H960.038L961.481 81.8713H998.625H999.144L999.125 82.3894L997.77 119.862L997.753 120.335L997.28 120.344L927.299 121.689V155.462H994.512V124.359V123.859H995.012H1070H1070.5V124.359V153.705V154.205H1070H1002.82L1000.56 155.462H1038.38H1038.88V155.962V195.692V196.197L1038.37 196.192L952.995 195.289L952.48 195.284L952.5 194.77L953.835 160.525H950.806L953.5 243.984ZM874.922 83.3174L725.908 81.1652L725.833 85.4831H775.919H776.419V85.9831V152.944L779.969 154.718L781.292 123.435L781.312 122.969L781.778 122.956L846.467 121.16L847.518 117.658L781.809 119.892L781.312 119.909L781.292 119.413L779.937 86.0034L779.916 85.4831H780.436H875.542L874.922 83.3174ZM435.5 205.016L435.517 204.49L434.99 204.5L344.642 206.314L344.153 206.324V206.814V251.719V251.837L344.205 251.942L345.56 254.664L345.698 254.941H346.008H427.272V259.376L339.732 258.031V208.175V207.675H339.232H260.178H259.678V208.175V253.941L228.272 253.941H227.772H146.317L145.1 251.496L144.205 251.942L145.56 254.664L145.698 254.941H146.008H214.571L215.184 259.19L139.239 258.023L139.224 259.023L215.329 260.193L219.026 285.81L220.021 285.738V260.265L227.765 260.384L228.272 260.392V259.884V257.209H321.052L296.273 259.386L295.817 259.426V259.884V288.867H222.232H222.174L222.119 288.88L216.246 290.241L216.359 291.228H364.529H365.029V290.728V263.105H367.191V294.778L336.507 295.671L336.028 295.685L336.021 296.164L335.57 329.276L335.562 329.79L336.076 329.783L376.078 329.24L367.214 329.691L366.739 329.715V330.19V366.023V366.513L367.229 366.523L433.558 367.873L433.182 372.781H406.089H405.569L405.589 373.3L407.376 419.5H303.141V371.013V370.513H302.641H297.672H297.181L297.172 371.003L296.278 418.124L208.72 415.433L207.998 373.781H233.645H234.108L234.143 373.319L234.458 369.213L357.308 367.43L357.68 367.425L357.782 367.067L358.686 363.892L358.867 363.255H358.205H262.957L264.271 330.707L330.18 332.958L330.875 332.981L330.676 332.315L329.321 327.779L329.217 327.432L328.856 327.422L264.271 325.621L262.936 293.882L262.903 293.109L262.212 293.456L257.695 295.724L257.419 295.862V296.171V363.255H207.324H206.816L206.824 363.764L206.869 366.33L167.739 365.533V330.665L202.952 328.875L202.92 327.876L136.576 328.776L137.015 296.657L167.706 295.763L168.191 295.749V295.264V262.605V262.105H167.691H164.529H164.029V262.605V290.228H20.7318L22.2888 289.867H96.3166H96.8166V289.367V260.342L132.499 257.207L132.456 256.209H19.5213H19.0213V256.709V278.774L15.5812 254.941H60.1776V253.941H15.0039H14.4265L14.509 254.512L19.0264 285.81L20.0213 285.738V257.209H121.052L96.2728 259.386L95.8166 259.426V259.884V288.867H22.2317H22.1745L22.1188 288.88L16.2462 290.241L16.3591 291.228H164.529H165.029V290.728V263.105H167.191V294.778L136.507 295.671L136.028 295.685L136.021 296.164L135.57 329.276L135.563 329.79L136.076 329.783L176.078 329.24L167.214 329.69L166.739 329.715V330.19V366.023V366.513L167.229 366.523L206.886 367.33L206.908 368.613L200.993 368.698L200.5 368.706V369.198V415.918H201.5V369.691L206.926 369.612L206.981 372.781H206.089H205.569L205.589 373.3L207.376 419.5H103.141V371.013V370.513H102.641H97.6718H97.1812L97.1719 371.003L96.278 418.124L8.71952 415.433L7.92562 369.598L157.308 367.43L157.68 367.425L157.782 367.067L158.686 363.892L158.867 363.255H158.205H62.957L64.2711 330.706L130.18 332.957L130.875 332.981L130.676 332.315L129.321 327.779L129.217 327.432L128.856 327.422L64.2715 325.621L62.9359 293.882L62.9034 293.109L62.212 293.456L57.6946 295.724L57.4189 295.862V296.171V363.255H7.32435H6.81561L6.82442 363.764L6.9084 368.613L0.992746 368.698L0.5 368.706V369.198V415.918H1.5V369.691L6.92572 369.612L7.72792 415.926L7.73617 416.403L8.21248 416.417L96.753 419.139L97.2587 419.155L97.2682 418.649L98.1624 371.513H102.141V420V420.5H102.641H207.896H208.415L208.395 419.981L208.258 416.419L296.753 419.139L297.259 419.155L297.268 418.649L298.162 371.513H302.141V420V420.5H302.641H407.896H408.415L408.395 419.981L406.609 373.781H433.645H434.108L434.143 373.319L434.595 367.422L434.635 366.895L434.107 366.884L367.739 365.533V330.665L402.952 328.875L402.92 327.876L336.576 328.776L337.015 296.657L367.706 295.764L368.191 295.749V295.264V262.605V262.105H367.691H364.529H364.029V262.605V290.228H220.732L222.289 289.867H296.317H296.817V289.367V260.342L332.499 257.207L332.456 256.209H228.272V254.941H260.178H260.678V254.441V208.675H338.732V258.523V259.016L339.224 259.023L427.765 260.384L428.272 260.392V259.884V254.441V253.941H427.772H346.317L345.153 251.602V207.304L434.483 205.51L431.79 289.351L431.773 289.867H432.29H436.355H436.875L436.855 289.348L435.52 254.935L519.878 254.039V292.949H480.625H478.703L480.382 293.886L484.448 296.154L484.561 296.217H484.691H540.154L540.261 296.981H551.5V324.7H477.512V293.449V292.949H477.012H408.799H408.299V293.449V328.376V328.866L408.79 328.875L478.788 330.227L480.107 366.884H443.131H442.781L442.661 367.214L440.854 372.203L440.612 372.873H441.324H521.685V414.531L424.138 418.591L424.153 419.59L492.002 420.323L491.987 420.906L526.689 421.811L527.202 421.824V421.311V375.218L531.767 375.139L532.982 421.324L532.994 421.799L533.469 421.811L622.051 424.072L622.549 424.085L622.564 423.587L623.905 377.035H627.891V425.382V425.882H628.391H733.695H734.21L734.195 425.367L732.854 378.844H758.553H758.93L759.034 378.482L760.841 372.15L761.023 371.512H760.361H693.972V336.745L728.762 334.067L728.711 333.069L662.335 334.864V302.84L693.493 301.504L693.972 301.483V301.004V268.44V267.94H693.472H690.308H689.808V268.44V295.981H552.5V295.717V295.217H552H546.5L546.658 295.172H622.064H622.588L622.563 294.648L621.23 266.637L658.713 263.511L658.672 262.512H544.78H544.28V263.012V283.507L540.842 260.799H585.908H586.408V260.299V214.666H664.047V264.369V264.862L664.539 264.869L753.122 266.226L753.629 266.234V265.726V260.299V259.799H753.129H672.932L670.47 256.514V212.4L759.85 211.505L758.053 294.661L758.042 295.172H758.553H762.168H762.695L762.668 294.646L760.887 260.793L845.279 259.9V298.243H806.008H804.657L805.682 299.122L808.846 301.836L808.986 301.956H809.171H876.916V330.355H803.344V298.743V298.243H802.844H734.599H734.099V298.743V333.568V334.05L734.58 334.068L805.508 336.764V372.417H769.4H769.066L768.938 372.725L766.678 378.152L766.39 378.844H767.14H847.087V419.929L748.606 424.429L748.587 424.43L748.613 425.429L748.633 425.429L874.701 424.525L874.708 424.525L928.026 425.429L928.534 425.438V424.929V378.837L933.963 378.759L934.766 424.938L934.774 425.415L935.25 425.429L1023.83 428.143L1024.34 428.158L1024.35 427.653L1025.24 380.654H1029.22V429V429.5H1029.72H1135.03H1135.55L1135.53 428.981L1133.74 382.915H1160.79H1161.25L1161.29 382.453L1161.74 376.574L1161.78 376.046L1161.25 376.035L1094.85 374.688V339.923L1130.06 338.139L1130.08 338.138L1130.05 337.139L1130.03 337.14L1063.67 338.037L1064.11 306.013L1094.82 305.122L1095.3 305.108V304.622V272.058V271.558H1094.8H1091.64H1091.14V272.058V299.6H947.788L949.333 299.243H1023.4H1023.9V298.743V269.803L1059.6 266.677L1059.55 265.678H946.564H946.064V266.178V288.183L942.622 264.417H987.24H987.74V263.917V218.284H1065.83V267.988V268.48L1066.32 268.488L1154.91 269.844L1155.41 269.852V269.344V263.917V263.417H1154.91H1073.42L1072.25 261.085V216.917L1161.63 215.129L1158.93 298.727L1158.92 299.243H1159.43H1163.5H1164.02L1164 298.723L1162.66 264.412L1247.06 263.518V302.313H1207.79H1205.86L1207.55 303.25L1211.62 305.512L1211.73 305.575H1211.86H1278.7V333.973H1204.68V302.813V302.313H1204.18H1135.93H1135.43V302.813V337.639V338.129L1135.92 338.139L1205.95 339.487L1207.27 376.035H1170.28H1169.93L1169.81 376.365L1168 381.34L1167.76 382.01H1168.47H1248.87V423.545L1151.3 427.593L1151.28 427.594L1151.3 428.593H1314V427.593H1175.42L1249.39 424.524L1249.87 424.505V424.025V381.51V381.01H1249.37H1169.19L1170.63 377.035H1207.79H1208.31L1208.29 376.517L1206.94 338.978L1206.92 338.505L1206.45 338.496L1136.43 337.149V303.313H1203.68V334.473V334.973H1204.18H1279.2H1279.7V334.473V305.075V304.575H1279.2H1211.99L1209.72 303.313H1247.56H1248.06V302.813V263.012V262.507L1247.56 262.513L1162.14 263.417L1161.62 263.423L1161.65 263.936L1162.98 298.243H1159.95L1162.64 214.634L1162.66 214.108L1162.13 214.118L1071.74 215.928L1071.25 215.937V216.427V261.203V261.321L1071.31 261.427L1072.66 264.141L1072.8 264.417H1073.11H1154.41V268.837L1066.83 267.495V217.784V217.284H1066.33H987.24H986.74V217.784V263.417H942.045H941.467L941.55 263.989L946.069 295.196L947.064 295.125V266.678H1048.11L1023.35 268.846L1022.9 268.886V269.344V298.243H949.276H949.219L949.163 298.256L943.288 299.612L943.401 300.6H1091.64H1092.14V300.1V272.558H1094.3V304.137L1063.6 305.027L1063.13 305.041L1063.12 305.52L1062.67 338.537L1062.66 339.05L1063.17 339.044L1103.12 338.503L1094.33 338.949L1093.85 338.973V339.448V375.178V375.668L1094.34 375.678L1160.7 377.024L1160.33 381.915H1133.22H1132.7L1132.72 382.434L1134.51 428.5H1030.22V380.154V379.654H1029.72H1024.75H1024.26L1024.25 380.144L1023.36 427.128L935.757 424.444L934.963 378.744L1084.42 376.583L1084.79 376.578L1084.89 376.22L1085.79 373.054L1085.98 372.417H1085.31H990.02L991.335 339.965L1057.28 342.209L1057.97 342.233L1057.77 341.566L1056.42 337.043L1056.31 336.697L1055.95 336.687L991.335 334.891L989.999 303.244L989.967 302.473L989.276 302.818L984.756 305.08L984.48 305.218V305.527V372.417H934.362H933.853L933.862 372.926L933.946 377.759L928.027 377.844L927.534 377.852V378.344V424.421L874.713 423.525L874.7 423.525L774.583 424.243L847.61 420.906L848.087 420.884V420.407V378.344V377.844H847.587H767.89L769.733 373.417H806.008H806.508V372.917V336.282V335.801L806.027 335.783L735.099 333.087V299.243H802.344V330.855V331.355H802.844H877.416H877.916V330.855V301.456V300.956H877.416H809.356L807.358 299.243H845.779H846.279V298.743V259.394V258.889L845.774 258.894L760.355 259.799L759.834 259.804L759.861 260.325L761.641 294.172H759.064L760.86 211.011L760.872 210.495L760.356 210.5L669.965 211.405L669.47 211.41V211.905V256.68V256.847L669.57 256.98L672.282 260.599L672.432 260.799H672.682H752.629V265.218L665.047 263.877V214.166V213.666H664.547H585.908H585.408V214.166V259.799H540.261H539.679L539.766 260.374L544.286 290.224L545.28 290.149V263.512H646.66L620.666 265.68L620.186 265.72L620.208 266.202L621.539 294.172H546.588H546.518L546.451 294.191L542.863 295.217H484.821L482.548 293.949H520.378H520.878V293.449V253.534V253.028L520.373 253.034L434.995 253.941L434.48 253.946L434.5 254.46L435.835 288.867H432.806L435.5 205.016ZM215.581 254.941L227.272 254.941V256.209H219.521H219.021V256.709V259.249L216.197 259.206L215.581 254.941ZM220.021 257.209H227.272V259.376L220.021 259.265V257.209ZM216.342 260.208L219.021 260.25V278.774L216.342 260.208ZM206.609 373.781H206.998L207.314 392.015L206.609 373.781ZM233.182 372.781H207.981L207.926 369.598L233.454 369.227L233.182 372.781ZM356.922 366.436L234.535 368.212L234.595 367.422L234.635 366.895L234.107 366.884L207.869 366.35L207.833 364.255H257.919H258.419V363.755V296.479L261.969 294.697L263.292 326.129L263.312 326.594L263.778 326.607L328.466 328.412L329.519 331.934L263.809 329.69L263.312 329.673L263.292 330.17L261.937 363.735L261.916 364.255H262.436H357.543L356.922 366.436ZM233.558 367.873L207.887 367.351L207.908 368.598L233.531 368.226L233.558 367.873ZM552.5 296.981V325.2V325.7H552H477.012H476.512V325.2V293.949H409.299V327.885L479.28 329.236L479.753 329.246L479.77 329.718L481.125 367.366L481.144 367.884H480.625H443.482L442.037 371.873H522.185H522.685V372.373V415.011V415.49L522.206 415.51L443.246 418.796L508.423 419.5L508.414 420.334L526.202 420.798V374.726V374.235L526.694 374.226L531.741 374.139L531.626 369.764L531.612 369.251H532.126H582.696V302.361V302.064L582.956 301.922L587.928 299.208L588.634 298.823L588.667 299.627L590.003 331.718L654.159 332.616L654.464 332.621L654.599 332.893L656.859 337.416L657.226 338.15L656.405 338.139L589.571 337.241V369.244L683.522 367.894L684.029 367.887V368.394V372.012V372.504L683.538 372.512L532.767 375.121L533.969 420.823L621.578 423.06L622.92 376.521L622.934 376.035H623.42H628.391H628.891V376.535V424.882H733.181L731.84 378.359L731.825 377.844H732.34H758.176L759.698 372.512H693.472H692.972V372.012V336.282V335.819L693.434 335.784L708.664 334.611L661.849 335.877L661.335 335.891V335.378V302.361V301.882L661.814 301.861L692.972 300.525V268.94H690.808V296.481V296.981H690.308H552.5ZM683.029 371.521L532.741 374.122L532.639 370.251H583.196H583.696V369.751V302.658L587.701 300.471L589.024 332.232L589.043 332.705L589.516 332.712L653.841 333.612L655.598 337.128L589.078 336.234L588.571 336.228V336.734V369.751V370.258L589.079 370.251L683.029 368.901V371.521ZM1084.03 375.588L934.945 377.744L934.87 373.417H984.98H985.48V372.917V305.836L989.033 304.058L990.356 335.399L990.375 335.864L990.841 335.877L1055.56 337.677L1056.61 341.186L990.872 338.948L990.376 338.932L990.356 339.428L989 372.897L988.979 373.417H989.5H1084.65L1084.03 375.588ZM7.9083 368.598L156.922 366.436L157.543 364.255H62.4364H61.9158L61.9368 363.735L63.292 330.17L63.312 329.673L63.8086 329.69L129.519 331.934L128.466 328.412L63.7776 326.607L63.3116 326.594L63.292 326.129L61.9693 294.697L58.4189 296.479V363.755V364.255H57.9189H7.83308L7.9083 368.598ZM209.299 293.449V328.375H208.299V293.449H209.299ZM1504.5 429.984L1504.52 430.51L1503.99 430.5L1413.64 428.694L1413.15 428.684V428.194V383.498V383.38L1413.21 383.274L1414.56 380.565L1414.7 380.289H1415.01H1496.27V375.879L1408.73 377.218V426.84V427.34H1408.23H1329.18H1328.68V426.84V381.289H1284H1283.43L1283.51 380.717L1288.03 349.565L1289.02 349.637V378.032H1390L1365.27 375.869L1364.82 375.829V375.371V346.525H1291.23H1291.17L1291.12 346.513L1285.25 345.158L1285.36 344.171H1433.53H1434.03V344.671V372.162H1436.19V340.642L1405.51 339.753L1405.03 339.739L1405.02 339.26L1404.57 306.302L1404.56 305.788L1405.08 305.795L1444.95 306.334L1436.21 305.892L1435.74 305.868V305.392V269.726V269.236L1436.23 269.226L1502.56 267.882L1502.18 263.002H1475.09H1474.57L1474.59 262.483L1476.38 216.5H1372.14V264.759V265.259H1371.64H1366.67H1366.18L1366.17 264.769L1365.28 217.87L1277.72 220.548L1276.93 266.165L1426.31 268.323L1426.68 268.328L1426.78 268.685L1427.69 271.846L1427.87 272.483H1427.2H1331.96L1333.27 304.876L1399.18 302.635L1399.88 302.612L1399.68 303.279L1398.32 307.794L1398.22 308.14L1397.86 308.15L1333.27 309.943L1331.94 341.532L1331.9 342.303L1331.21 341.958L1326.7 339.7L1326.42 339.562V339.253V272.483H1276.32H1275.82L1275.82 271.974L1275.91 267.151L1269.99 267.065L1269.5 267.058V266.565V220.063H1270.5V266.073L1275.93 266.151L1276.73 220.055L1276.74 219.578L1277.21 219.564L1365.75 216.855L1366.26 216.839L1366.27 217.345L1367.16 264.259H1371.14V216V215.5H1371.64H1476.9H1477.42L1477.4 216.019L1475.61 262.002H1502.64H1503.11L1503.14 262.464L1503.59 268.333L1503.64 268.86L1503.11 268.871L1436.74 270.216V304.917L1471.95 306.699L1471.92 307.698L1405.58 306.802L1406.01 338.767L1436.71 339.656L1437.19 339.67V340.156V372.662V373.162H1436.69H1433.53H1433.03V372.662V345.171H1289.75L1291.29 345.525H1365.32H1365.82V346.025V374.913L1401.5 378.034L1401.46 379.032H1288.52H1288.02V378.532V356.569L1284.58 380.289H1329.18H1329.68V380.789V426.34H1407.73V376.726V376.233L1408.22 376.226L1496.76 374.871L1497.27 374.864V375.371V380.789V381.289H1496.77H1415.32L1414.15 383.616V427.704L1503.48 429.49L1500.79 346.041L1500.77 345.525H1501.29H1505.36H1505.88L1505.85 346.045L1504.52 380.294L1577.89 381.07L1582.03 352.565L1583.02 352.637V381.032H1588.88V349.525H1585.23H1585.17L1585.12 349.513L1579.25 348.158L1579.36 347.171H1588.88V342.462H1549.63H1547.69L1549.38 341.525L1553.45 339.267L1553.56 339.205H1553.69H1620.42V310.859H1546.51V341.962V342.462H1546.01H1477.8H1477.3V341.962V307.198V306.708L1477.79 306.698L1547.79 305.353L1549.11 268.871H1512.13H1511.78L1511.66 268.542L1509.85 263.576L1509.61 262.905H1510.32H1563.5V223.063H1564.5V262.905H1570.03L1570.73 223.055L1570.74 222.578L1571.21 222.564L1590.69 221.968V221.446L1493.14 217.405L1493.15 216.405L1577.41 215.5L1577.42 216.5L1512.33 217.199L1591.21 220.467L1591.69 220.487V220.966V221.937L1659.75 219.855L1660.26 219.839L1660.27 220.345L1661.16 267.259H1665.14V219V218.882L1607.59 219.5L1607.58 218.5L1672.67 217.801L1593.79 214.533L1593.31 214.513V214.034V171.595V171.095H1593.81H1673.96L1672.52 167.129H1635.37H1634.86L1634.87 166.611L1636.23 129.138L1636.25 128.665L1636.72 128.656L1706.7 127.311V93.538H1639.49V124.641V125.141H1638.99H1564H1563.5V124.641V95.2954V94.7954H1564H1631.18L1633.44 93.538H1595.62H1595.12V93.038V53.308V52.8027L1595.63 52.8081L1681.01 53.711L1681.52 53.7164L1681.5 54.2305L1680.16 88.4747H1683.19L1680.5 5.01613L1680.48 4.48957L1681.01 4.5001L1771.36 6.30601L1771.85 6.31581V6.80591V51.5021V51.6202L1771.79 51.7258L1770.44 54.4347L1770.3 54.711H1769.99H1688.73V59.121L1776.27 57.7819V8.16033V7.66033H1776.77H1855.82H1856.32V8.16033V53.711H1901H1901.57L1901.49 54.2827L1896.97 85.4346L1895.98 85.3629V56.9683H1795L1819.73 59.1306L1820.18 59.1705V59.6287V88.4747H1893.77H1893.83L1893.88 88.4875L1899.75 89.8419L1899.64 90.8291H1751.47H1750.97V90.3291V62.8375H1748.81V94.3582L1779.49 95.2471L1779.97 95.2609L1779.98 95.74L1780.43 128.698L1780.44 129.212L1779.92 129.205L1740.05 128.666L1748.79 129.108L1749.26 129.132V129.608V165.274V165.764L1748.77 165.774L1682.44 167.118L1682.82 171.998H1709.91H1710.43L1710.41 172.517L1708.62 218.5H1770.9H1771.42H1812.86V170.241V169.741H1813.36H1818.33H1818.82L1818.83 170.231L1819.72 217.13L1907.28 214.452L1908.07 168.835L1758.69 166.677L1758.32 166.672L1758.22 166.315L1757.31 163.154L1757.13 162.517H1757.8H1853.04L1851.73 130.124L1785.82 132.365L1785.12 132.388L1785.32 131.721L1786.68 127.206L1786.78 126.86L1787.14 126.85L1851.73 125.057L1853.06 93.4683L1853.1 92.6972L1853.79 93.0422L1858.3 95.2996L1858.58 95.4378V95.7468V162.517H1908.68H1909.18L1909.18 163.026L1909.09 167.849L1915.01 167.935L1915.5 167.942V168.435V214.937H1914.5V168.927L1909.07 168.849L1908.27 214.945L1908.26 215.422L1907.79 215.436L1819.25 218.145L1818.74 218.161L1818.73 217.655L1817.84 170.741H1813.86V219V219.118L1871.41 218.5L1871.42 219.5L1806.33 220.199L1885.21 223.467L1885.69 223.487V223.966V266.405V266.905H1885.19H1805.04L1806.48 270.871H1843.63H1844.14L1844.13 271.389L1842.77 308.862L1842.75 309.335L1842.28 309.344L1772.3 310.689V344.462H1839.51V313.359V312.859H1840.01H1915H1915.5V313.359V342.705V343.205H1915H1847.82L1845.56 344.462H1883.38H1883.88V344.962V384.692V385.197L1883.37 385.192L1797.99 384.289L1797.48 384.284L1797.5 383.77L1798.84 349.525H1795.81L1798.5 432.984L1798.52 433.51L1797.99 433.5L1707.64 431.694L1707.15 431.684V431.194V386.498V386.38L1707.21 386.274L1708.56 383.565L1708.7 383.289H1709.01H1790.27V378.879L1702.73 380.218V429.84V430.34H1702.23H1623.18H1622.68V429.84V384.289H1578H1577.43L1577.51 383.717L1577.75 382.069L1503.99 381.289L1503.48 381.284L1503.5 380.77L1504.84 346.525H1501.81L1504.5 429.984ZM1787.15 219.5H1771.38L1769.61 265.002H1796.64H1797.11L1797.14 265.464L1797.59 271.333L1797.64 271.86L1797.11 271.871L1730.74 273.216V307.917L1765.95 309.699L1765.92 310.698L1699.58 309.802L1700.01 341.767L1730.71 342.656L1731.19 342.67V343.156V375.662V376.162H1730.69H1727.53H1727.03V375.662V348.171H1589.88V348.525H1659.32H1659.82V349.025V377.913L1695.5 381.034L1695.46 382.032H1589.88V382.197L1589.37 382.192L1578.76 382.08L1578.58 383.289H1623.18H1623.68V383.789V429.34H1701.73V379.726V379.233L1702.22 379.226L1790.76 377.871L1791.27 377.864V378.371V383.789V384.289H1790.77H1709.32L1708.15 386.616V430.704L1797.48 432.49L1794.79 349.041L1794.77 348.525H1795.29H1799.36H1799.88L1799.85 349.045L1798.52 383.294L1882.88 384.187V345.462H1843.63H1841.69L1843.38 344.525L1847.45 342.267L1847.56 342.205H1847.69H1914.5V313.859H1840.51V344.962V345.462H1840.01H1771.8H1771.3V344.962V310.198V309.708L1771.79 309.698L1841.79 308.353L1843.11 271.871H1806.13H1805.78L1805.66 271.542L1803.85 266.576L1803.61 265.905H1804.32H1884.69V224.446L1787.14 220.405L1787.15 219.5ZM1770.38 219.5H1708.1H1707.58H1666.14V267.759V268.259H1665.64H1660.67H1660.18L1660.17 267.769L1659.28 220.87L1591.69 222.938V263.405V263.905H1591.19H1571.02L1570.93 269.165L1720.31 271.323L1720.68 271.328L1720.78 271.685L1721.69 274.846L1721.87 275.483H1721.2H1625.96L1627.27 307.876L1693.18 305.635L1693.88 305.612L1693.68 306.279L1692.32 310.794L1692.22 311.14L1691.86 311.15L1627.27 312.943L1625.94 344.532L1625.9 345.303L1625.21 344.958L1620.7 342.7L1620.42 342.562V342.253V340.205H1553.82L1551.56 341.462H1589.38H1589.88V341.962V347.171H1727.53H1728.03V347.671V375.162H1730.19V343.642L1699.51 342.753L1699.03 342.739L1699.02 342.26L1698.57 309.302L1698.56 308.788L1699.08 308.795L1738.95 309.334L1730.21 308.892L1729.74 308.868V308.392V272.726V272.236L1730.23 272.226L1796.56 270.882L1796.18 266.002H1769.09H1768.57L1768.59 265.483L1770.38 219.5ZM1707.62 218.5L1709.39 172.998H1682.36H1681.89L1681.86 172.536L1681.41 166.667L1681.36 166.14L1681.89 166.129L1748.26 164.784V130.083L1713.05 128.301L1713.08 127.302L1779.42 128.198L1778.99 96.2328L1748.29 95.3437L1747.81 95.3296V94.8439V62.3375V61.8375H1748.31H1751.47H1751.97V62.3375V89.8291H1895.25L1893.71 89.4747H1819.68H1819.18V88.9747V60.0869L1783.5 56.9664L1783.54 55.9683H1896.48H1896.98V56.4683V78.4309L1900.42 54.711H1855.82H1855.32V54.211V8.66033H1777.27V58.2743V58.7667L1776.78 58.7742L1688.24 60.1286L1687.73 60.1364V59.6287V54.211V53.711H1688.23H1769.68L1770.85 51.384V7.29602L1681.52 5.51043L1684.21 88.9585L1684.23 89.4747H1683.71H1679.64H1679.12L1679.15 88.9552L1680.48 54.7055L1596.12 53.8133V92.538H1635.37H1637.31L1635.62 93.4751L1631.55 95.7325L1631.44 95.7954H1631.31H1564.5V124.141H1638.49V93.038V92.538H1638.99H1707.2H1707.7V93.038V127.802V128.292L1707.21 128.302L1637.21 129.647L1635.89 166.129H1672.87H1673.22L1673.34 166.458L1675.15 171.424L1675.39 172.095H1674.68H1594.31V213.554L1691.86 217.595L1691.85 218.5H1707.62ZM1582.02 381.114L1578.9 381.081L1582.02 359.569V381.114ZM1684 381.032H1589.88V349.525H1658.82V378.371V378.829L1659.27 378.869L1684 381.032ZM1588.88 348.171V348.525H1585.29L1583.75 348.171H1588.88ZM1621.42 341.944V340.205H1621.5V339.705V310.359V309.859H1621.42V274.983V274.483H1620.92H1570.83L1570.91 270.165L1719.92 272.317L1720.54 274.483H1625.44H1624.92L1624.94 275.003L1626.29 308.413L1626.31 308.909L1626.81 308.892L1692.52 306.658L1691.47 310.16L1626.78 311.956L1626.31 311.969L1626.29 312.435L1624.97 343.718L1621.42 341.944ZM1620.42 275.483V309.859H1546.01H1545.51V310.359V341.462H1478.3V307.689L1548.28 306.344L1548.75 306.335L1548.77 305.862L1550.13 268.389L1550.14 267.871H1549.63H1512.48L1511.04 263.905H1563.5V269.565V270.058L1563.99 270.065L1569.91 270.151L1569.82 274.974L1569.82 275.483H1570.32H1620.42ZM1564.5 269.073V263.905H1570.02L1569.93 269.151L1564.5 269.073ZM1590.69 262.905H1571.03L1571.72 223.548L1590.69 222.968V262.905ZM1425.92 269.317L1276.91 267.165L1276.83 271.483H1326.92H1327.42V271.983V338.944L1330.97 340.718L1332.29 309.435L1332.31 308.969L1332.78 308.956L1397.47 307.16L1398.52 303.658L1332.81 305.892L1332.31 305.909L1332.29 305.413L1330.94 272.003L1330.92 271.483H1331.44H1426.54L1425.92 269.317ZM1759.08 165.683L1908.09 167.835L1908.17 163.517H1858.08H1857.58V163.017V96.0559L1854.03 94.2817L1852.71 125.565L1852.69 126.031L1852.22 126.044L1787.53 127.84L1786.48 131.342L1852.19 129.108L1852.69 129.091L1852.71 129.587L1854.06 162.997L1854.08 163.517H1853.56H1758.46L1759.08 165.683Z" fill="#303334" fill-opacity="0.26"/>
</svg>
