<svg width="1920" height="220" viewBox="0 0 1920 220" fill="none" xmlns="http://www.w3.org/2000/svg">
<path d="M1920 219H1687.03L1734.88 216.365V196.606H1696.25V194.411H1715.13L1713.81 176.188H1680.22V158.625H1713.81V173.554H1750.25V159.722H1717.54L1716 157.746H1734.88V138.865H1693.17V156.429H1691.86V115.813H1649.05V138.865L1650.37 139.963H1689.88V142.158L1645.98 141.28L1646.63 115.813L1645.98 114.276M1645.98 114.276L1644.66 116.691L1608.22 117.13L1608.66 139.304L1586.27 139.963L1588.24 154.892V141.28L1642.68 140.622L1625.34 142.158V156.429H1589.34L1586.27 157.307H1658.71V143.256H1660.46L1660.68 159.064H1645.32V176.188L1677.37 175.53V176.188L1660.46 176.847V193.752L1691.86 194.411V196.606L1679.34 197.265V219H1628.85V195.508H1626.66L1625.34 219L1583.19 217.902L1582.09 192.435H1606.9V159.722L1609.1 158.625L1609.75 174.432L1641.37 174.871L1642.24 176.847H1609.75V192.435H1656.07V193.752L1579.46 195.508V217.902L1513.9 216.034H1435.05L1482.58 214.061V193.445H1443.37L1444.25 191.033H1462.43L1461.77 172.83L1427.6 172.172V155.284H1460.68V170.636H1497.04V156.381H1464.4L1462.43 155.284H1481.7V135.985L1440.3 136.423L1440.96 153.311H1438.99L1440.3 112.518L1396.49 113.395V135.107L1397.15 136.423H1436.8V139.055L1393.86 138.397V114.053H1355.53V136.423H1333.63L1335.82 151.556V137.52H1390.58L1373.06 139.055V153.311H1337.13L1334.28 153.968H1406.13V140.371H1407.67V156.162L1392.55 156.6L1392.33 172.61L1424.75 172.172L1407.45 173.049V190.375L1439.87 191.033L1439.65 193.884H1426.28L1427.16 216.473H1376.12V192.787H1373.71L1373.27 215.816L1330.34 214.5L1329.9 189.278H1354.44V156.6L1356.63 155.504L1357.28 171.075L1388.83 171.952L1389.48 174.146L1357.28 173.049L1356.63 189.278H1403.07L1402.63 190.814L1326.84 191.91V214.5L1300.99 214.061L1239.87 214.5L1287.84 212.307V191.91H1248.85L1249.95 189.278H1267.69V171.514L1233.08 170.198V153.311H1266.16V168.882H1302.3V154.626H1269.23L1267.69 153.311H1286.97V134.23L1245.57 134.669L1246.44 151.337H1244.69L1245.57 110.763L1201.76 111.202V132.914L1203.07 134.669H1242.06V137.3L1199.13 136.643V112.298H1161.01V134.669H1138.89L1141.08 149.144V135.985H1196.28L1177.88 137.52L1178.54 151.337H1141.96L1138.89 152.214H1211.62V138.616H1213.15V154.407L1197.82 155.065V171.075L1230.23 170.198L1213.15 171.514V188.84H1245.57L1244.69 191.91H1231.99L1232.64 214.719H1181.61V191.033H1179.2L1178.54 213.842L1135.61 212.745L1134.95 187.743H1159.7V155.065L1162.11 153.749L1162.77 169.54L1194.09 169.979L1195.19 172.172L1162.55 171.733V187.743L1208.33 187.085V188.84L1132.32 190.156V212.745H1020.5M1645.98 114.276L1648.39 110.544L1631.05 96.2731L1664.86 111.422H1669.25C1670.12 111.495 1671.35 111.246 1669.25 109.666C1667.14 108.085 1664.27 105.933 1663.1 105.055L1681.1 111.422C1676.86 108.568 1668.24 102.377 1667.71 100.445C1667.18 98.5125 1668.51 98.9077 1669.25 99.3468L1676.93 103.957C1678.69 104.762 1682.2 105.494 1682.2 101.981C1682.2 98.4686 1682.2 95.1022 1682.2 93.8581L1687.69 114.935L1653 114.276C1653.07 112.886 1652.56 110.588 1649.93 112.52C1649.05 113.178 1648.39 114.056 1645.54 111.861C1643.25 110.105 1637.27 104.104 1634.56 101.323M1645.98 114.276C1644.92 111.29 1643.34 111.422 1642.68 111.861L1640.71 112.52L1638.51 108.129H1635.66V106.372L1632.68 101.981M1634.56 101.323C1621.83 100.664 1612.61 108.787 1610.41 110.763C1608.66 112.344 1609.39 113.032 1609.97 113.178L1612.61 110.544H1618.1V107.031C1618.61 107.031 1620.07 107.031 1621.83 107.031C1623.02 105.687 1628.75 103.4 1632.68 101.981M1634.56 101.323C1634.01 101.509 1633.38 101.732 1632.68 101.981M1670.12 91.2235C1671 91.2235 1673.11 91.2235 1674.51 91.2235C1677.5 93.8581 1675.17 95.6877 1673.64 96.2731H1672.1C1663.25 96.639 1644.83 97.3709 1642.02 97.3709C1639.21 97.3709 1639.98 96.2 1640.71 95.6145C1650.59 95.029 1670.83 93.8581 1672.76 93.8581C1673.81 92.9799 1673.2 91.7358 1672.76 91.2235L1672.1 89.2476L1669.94 89.841M1670.12 91.2235C1670.19 91.9261 1667.81 92.2481 1666.61 92.3213C1659.29 92.5408 1644.26 93.0238 1642.68 93.1995C1640.71 93.419 1644.66 91.2235 1646.63 90.3454C1647.29 87.7108 1647.51 88.589 1649.05 88.589C1650.59 87.4913 1649.93 87.2717 1651.03 85.5153C1652.12 83.5394 1653 83.7589 1654.98 85.5153C1656.07 87.4912 1656.73 85.7349 1657.61 84.4176C1660.03 82.2221 1661.56 83.7589 1662.44 86.6131C1662.62 88.8964 1663.68 88.8817 1664.2 88.589C1664.42 87.8572 1665.21 86.4374 1666.61 86.6131C1668.66 86.8688 1669.59 88.4586 1669.94 89.841M1670.12 91.2235C1670.12 90.8453 1670.07 90.3576 1669.94 89.841M1672.1 88.589C1671.88 87.784 1672.06 86.0422 1674.51 85.5153M1674.51 85.5153C1673.64 86.6131 1672.76 87.9303 1673.42 88.3694C1674.08 88.8085 1674.73 88.589 1675.17 87.2717C1676.05 88.589 1679.12 91.2235 1680.44 91.2235C1681.54 91.2235 1680.88 88.8085 1678.9 86.6131C1681.32 89.841 1685.71 94.7363 1681.98 85.7349C1683.08 87.4912 1683.51 89.0281 1685.05 90.3454C1686.28 91.3992 1685.56 87.1253 1685.05 84.8567C1685.49 86.6862 1686.46 90.4332 1686.81 90.7844C1687.25 91.2235 1690.1 89.4672 1689.88 88.3694C1689.66 87.2717 1689.22 85.9544 1689.88 84.8567C1690.41 83.9785 1692.88 80.6853 1694.05 79.1484C1694.34 78.4898 1695.46 77.0408 1697.56 76.5139C1699.67 75.987 1710.59 72.3425 1715.78 70.5861L1723.47 68.1711L1726.1 67.2929C1727.2 67.0733 1729.4 66.283 1729.4 64.8779C1729.4 63.1215 1730.49 57.8524 1725 55.6569C1719.52 53.4614 1714.03 50.3878 1707.44 54.5592C1703.27 56.9742 1702.17 60.2674 1701.95 63.341C1700.37 63.341 1699.1 63.341 1698.66 63.341C1698.81 60.121 1700.9 53.2858 1708.1 51.705C1701.6 49.9487 1690.03 47.0214 1685.05 45.7773C1684.69 45.6309 1683.82 45.4699 1683.3 45.9968C1682.64 46.6555 1678.9 51.2659 1680.88 63.5606C1681.58 69.181 1681.9 71.6106 1681.98 72.1229L1677.15 76.5139C1674.81 76.6602 1669.77 76.5578 1668.37 74.977C1668.02 71.4643 1667.78 61.5115 1667.71 56.9742C1667.86 53.8273 1668.85 46.6555 1671.66 43.1427M1674.51 85.5153C1676.86 82.5148 1682.15 75.8552 1684.61 73.2207C1687.07 70.5861 1693.39 67.4392 1696.25 66.1951L1699.98 64.8779C1703.56 62.6824 1710.87 58.3354 1711.39 58.511C1707.44 64.4776 1691.64 65.5365 1688.78 65.5365C1685.93 65.5365 1684.17 65.7561 1679.56 66.6342C1676.58 56.6229 1680.51 47.3873 1682.86 44.0209C1680.59 43.8745 1675.17 43.494 1671.66 43.1427M1671.66 43.1427L1667.05 42.7036M1667.05 42.7036C1666.54 43.4354 1665.51 45.4699 1665.51 47.7532C1665.51 50.0365 1665.07 66.8538 1664.86 74.977L1651.03 77.3921L1640.27 76.8736M1667.05 42.7036H1664.2M1632.8 76.5139L1636.76 76.7043M1640.27 76.8736C1639.68 75.0705 1638.56 70.2787 1638.73 65.5365C1638.91 60.7943 1639.54 51.1196 1639.83 46.875L1641.81 48.796M1640.27 76.8736V78.2702H1632.8C1629.95 73.8061 1624.99 63.4289 1627.98 57.6328C1629.03 62.5507 1629.29 66.4147 1629.29 67.732C1629.51 71.3179 1630.3 78.9289 1631.71 80.6853C1633.11 81.7391 1634.2 82.7344 1634.56 83.1003C1635.29 83.3198 1636.54 84.1102 1635.66 85.5153C1634.78 86.9204 1629.88 95.029 1627.54 98.9077C1626.15 100.737 1622.79 104.001 1620.51 102.42C1620.16 100.84 1623.73 96.639 1625.56 94.7363L1634.34 83.9785L1627.98 79.5875L1596.58 56.3155L1581.88 74.977L1601.85 88.589V83.1003C1602.95 82.8807 1604.93 83.0501 1604.93 85.5153M1640.27 76.8736L1636.76 76.7043M1660.46 47.7532H1663.22V44.0209M1660.46 47.7532L1661.11 46.875M1660.46 47.7532C1660.34 47.9209 1660.16 48.1428 1659.95 48.4118M1660.46 47.7532C1659.68 46.6555 1658.49 43.8452 1659.95 41.3863C1661.78 38.3127 1661.78 36.5563 1660.46 35.0195C1659.15 33.4826 1657.61 33.0435 1657.61 30.1894C1657.61 29.397 1657.61 28.2997 1657.61 27.1158M1664.2 42.7036C1665.64 39.5862 1667.87 33.5321 1667.38 30.1894M1664.2 42.7036C1665.59 41.8986 1668.59 39.8934 1669.47 38.3127C1671.4 34.7999 1668.88 31.4335 1667.38 30.1894M1664.2 42.7036L1663.22 44.0209M1664.2 42.7036H1661.78L1661.11 46.875M1666.61 28.433C1664.33 26.1497 1661.56 24.5544 1660.46 24.0421M1666.61 28.433C1659.24 27.2036 1659.44 24.9935 1660.46 24.0421M1666.61 28.433C1667.02 28.8459 1667.27 29.4516 1667.38 30.1894M1660.46 24.0421H1659.59M1663.22 44.0209L1661.11 46.875M1642.68 49.6498L1647.73 54.5591C1649.05 55.8764 1652.34 57.7206 1654.98 54.5591C1657.15 51.9551 1658.97 49.6688 1659.95 48.4118M1642.68 49.6498C1642.83 52.2376 1644.57 57.6328 1650.37 58.511C1657.61 59.6087 1659.44 51.705 1659.95 48.4118M1642.68 49.6498L1641.81 48.796M1659.59 24.0421C1659.51 23.1639 1659.24 21.0123 1658.71 19.4316C1658.18 17.8509 1656.88 18.0411 1656.29 18.3339L1657.61 20.9684C1657.61 21.9975 1657.61 23.6597 1657.61 25.3594M1659.59 24.0421L1657.61 25.3594M1657.61 25.3594C1657.61 25.9486 1657.61 26.5423 1657.61 27.1158M1657.61 27.1158H1655.85V21.8466C1655.93 20.8221 1655.81 18.6851 1654.76 18.3339C1653.7 17.9826 1653.59 20.5294 1653.66 21.8466V25.5789L1646.2 21.8466L1645.24 21.4075M1645.24 21.4075L1643.34 20.5293C1642.54 20.0903 1641.85 19.1243 1645.54 18.773C1648.39 18.3339 1649.93 19.2796 1647.51 20.3098C1646.46 20.8367 1645.56 21.2612 1645.24 21.4075ZM1645.24 21.4075L1630.39 28.433V31.2872L1635 36.5563L1641.37 42.7036C1643.05 44.0941 1647.34 46.3042 1651.03 44.0209C1653.84 40.6838 1655.12 38.9713 1655.42 38.5322L1651.46 44.8991C1651.1 45.7041 1649.66 47.2263 1646.85 46.875C1644.04 46.875 1642.32 46.5823 1641.81 46.4359V48.796M1604.93 85.5153C1604.93 87.2717 1604.85 89.3208 1604.93 89.6867M1604.93 85.5153C1605.95 84.7835 1608 84.0663 1608 87.0521M1608 87.0521C1608 89.1598 1608 90.8576 1608 91.4431M1608 87.0521C1609.1 86.6131 1611.29 86.3057 1611.29 88.589C1611.29 90.8723 1611.29 92.7604 1611.29 93.419L1612.61 91.8822C1613.49 90.7844 1614.89 89.8184 1613.49 94.7363C1615.59 96.317 1618.17 98.7613 1619.19 99.7859L1612.61 95.834L1611.73 96.9318C1611.15 97.2245 1610.02 97.5026 1610.19 96.2731C1610.37 95.0437 1609.39 95.029 1608.88 95.1754C1608.44 95.5413 1607.6 95.6584 1607.78 93.1994C1606.68 93.8581 1604.71 94.9558 1605.14 92.1017C1603.83 92.7604 1601.63 92.5408 1602.29 90.1258C1601.24 89.9502 1598.78 89.7599 1597.68 89.6867L1581.44 77.6116L1597.02 59.1696L1618.1 74.3184L1621.61 61.8042C1621.83 59.7551 1623.06 55.3495 1626.22 54.12C1629.95 52.3637 1637.41 48.1923 1638.07 47.3141C1636.98 50.6073 1631.71 60.8678 1636.76 76.7043M1627.32 31.9458C1629.37 29.1649 1634.91 22.9444 1640.71 20.3098C1646.5 17.6752 1651.03 16.5775 1652.56 16.358C1653.22 16.2848 1654.71 16.358 1655.42 17.2361C1656.12 17.7631 1657.61 17.7484 1658.27 17.6752H1660.46C1659.66 17.0166 1657.87 15.2163 1657.17 13.2843C1656.47 11.3523 1653.81 7.64924 1652.56 6.03922C1650.51 3.40466 1644.35 -1.07411 1636.1 2.08737C1629.07 4.72194 1625.56 8.6006 1624.68 10.2106C1623.66 11.2352 1622 14.2064 1623.58 17.8948C1624.99 21.5832 1625.63 23.2371 1625.78 23.603C1626.07 24.6275 1626.53 26.8523 1626 27.5548C1625.47 28.2574 1625.78 29.604 1626 30.1894C1625.93 31.1408 1626.09 32.824 1627.32 31.9458Z" stroke="#303334" stroke-opacity="0.8"/>
<path d="M0 219H232.973L185.117 216.365V196.606H223.753V194.411H204.874L206.191 176.188H239.778V158.625H206.191V173.554H169.75V159.722H202.459L203.996 157.746H185.117V138.865H226.826V156.429H228.143V115.813H270.951V138.865L269.633 139.963H230.119V142.158L274.024 141.28L273.365 115.813L274.024 114.276M274.024 114.276L275.341 116.691L311.782 117.13L311.343 139.304L333.734 139.963L331.759 154.892V141.28L277.317 140.622L294.659 142.158V156.429H330.661L333.734 157.307H261.291V143.256H259.535L259.316 159.064H274.682V176.188L242.632 175.53V176.188L259.535 176.847V193.752L228.143 194.411V196.606L240.656 197.265V219H291.147V195.508H293.342L294.659 219L336.808 217.902L337.905 192.435H313.099V159.722L310.904 158.625L310.245 174.432L278.634 174.871L277.756 176.847H310.245V192.435H263.926V193.752L340.54 195.508V217.902H480.596H559.454L511.92 215.93V195.314H551.13L550.254 192.901H532.072L532.73 174.698L566.901 174.04V157.153H533.825V172.505H497.462V158.249H530.101L532.072 157.153H512.796V137.853L554.196 138.292L553.539 155.179H555.511L554.196 114.386L598.006 115.264V136.976L597.349 138.292H557.701V140.924L600.635 140.266V115.922H638.969V138.292H660.874L658.683 153.425V139.388H603.921L621.445 140.924V155.179H657.369L660.217 155.837H588.368V142.239H586.835V158.03L601.949 158.469L602.168 174.479L569.749 174.04L587.054 174.917V192.243L554.635 192.901L554.854 195.753H568.216L567.339 218.342H618.378V194.656H620.788L621.226 217.684L664.159 216.368L664.598 191.147H640.064V158.469L637.873 157.372L637.216 172.944L605.673 173.821L605.016 176.014L637.216 174.917L637.873 191.147H591.435L591.873 192.682L667.664 193.779V216.368L693.512 215.93L754.627 216.368L706.655 214.175V193.779H745.646L744.551 191.147H726.808V173.382L761.418 172.066V155.179H728.341V170.751H692.198V156.495H725.274L726.808 155.179H707.531V136.099L748.932 136.537L748.056 153.205H749.808L748.932 112.632L792.742 113.07V134.783L791.428 136.537H752.437V139.169L795.37 138.511V114.167H833.485V136.537H855.609L853.419 151.012V137.853H798.218L816.618 139.388L815.961 153.205H852.542L855.609 154.082H782.885V140.485H781.351V156.276L796.685 156.934V172.944L764.265 172.066L781.351 173.382V190.708H748.932L749.808 193.779H762.513L761.856 216.588H812.894V192.901H815.304L815.961 215.71L858.895 214.614L859.552 189.612H834.799V156.934L832.39 155.618L831.733 171.408L800.409 171.847L799.313 174.04L831.952 173.602V189.612L786.17 188.954V190.708L862.181 192.024V214.614L879 214.175M274.024 114.276L271.609 110.544L288.951 96.2731L255.145 111.422H250.754C249.876 111.495 248.647 111.246 250.754 109.666C252.862 108.085 255.73 105.933 256.901 105.055L238.9 111.422C243.144 108.568 251.764 102.377 252.291 100.445C252.818 98.5125 251.486 98.9077 250.754 99.3468L243.071 103.957C241.315 104.762 237.802 105.494 237.802 101.981C237.802 98.4686 237.802 95.1022 237.802 93.8581L232.314 114.935L266.999 114.276C266.926 112.886 267.438 110.588 270.072 112.52C270.95 113.178 271.609 114.056 274.463 111.861C276.746 110.105 282.732 104.104 285.439 101.323M274.024 114.276C275.078 111.29 276.658 111.422 277.317 111.861L279.292 112.52L281.488 108.129H284.341V106.372L287.316 101.981M285.439 101.323C298.171 100.664 307.391 108.787 309.587 110.763C311.343 112.344 310.611 113.032 310.026 113.178L307.391 110.544H301.903V107.031C301.391 107.031 299.928 107.031 298.171 107.031C296.977 105.687 291.252 103.4 287.316 101.981M285.439 101.323C285.986 101.509 286.624 101.732 287.316 101.981M249.876 91.2235C248.998 91.2235 246.891 91.2235 245.486 91.2235C242.5 93.8581 244.827 95.6877 246.364 96.2731H247.901C256.755 96.639 275.165 97.3709 277.975 97.3709C280.785 97.3709 280.024 96.2 279.292 95.6145C269.414 95.029 249.174 93.8581 247.242 93.8581C246.188 92.9799 246.803 91.7358 247.242 91.2235L247.901 89.2476L250.06 89.841M249.876 91.2235C249.814 91.9261 252.192 92.2481 253.388 92.3213C260.706 92.5408 275.736 93.0238 277.317 93.1995C279.292 93.419 275.341 91.2235 273.365 90.3454C272.707 87.7108 272.487 88.589 270.951 88.589C269.414 87.4913 270.072 87.2717 268.975 85.5153C267.877 83.5394 266.999 83.7589 265.023 85.5153C263.926 87.4912 263.267 85.7349 262.389 84.4176C259.974 82.2221 258.438 83.7589 257.56 86.6131C257.384 88.8964 256.316 88.8817 255.803 88.589C255.584 87.8572 254.793 86.4374 253.388 86.6131C251.343 86.8688 250.414 88.4586 250.06 89.841M249.876 91.2235C249.876 90.8453 249.928 90.3576 250.06 89.841M247.901 88.589C248.12 87.784 247.944 86.0422 245.486 85.5153M245.486 85.5153C246.364 86.6131 247.242 87.9303 246.583 88.3694C245.925 88.8085 245.266 88.589 244.827 87.2717C243.949 88.589 240.876 91.2235 239.559 91.2235C238.461 91.2235 239.12 88.8085 241.095 86.6131C238.681 89.841 234.29 94.7363 238.022 85.7349C236.924 87.4912 236.485 89.0281 234.949 90.3454C233.719 91.3992 234.436 87.1253 234.949 84.8567C234.51 86.6862 233.544 90.4332 233.192 90.7844C232.753 91.2235 229.9 89.4672 230.119 88.3694C230.339 87.2717 230.778 85.9544 230.119 84.8567C229.592 83.9785 227.119 80.6853 225.948 79.1484C225.655 78.4898 224.543 77.0408 222.436 76.5139C220.328 75.987 209.411 72.3425 204.215 70.5861L196.532 68.1711L193.898 67.2929C192.8 67.0733 190.605 66.283 190.605 64.8779C190.605 63.1215 189.507 57.8524 194.995 55.6569C200.483 53.4614 205.971 50.3878 212.557 54.5592C216.728 56.9742 217.826 60.2674 218.045 63.341C219.626 63.341 220.899 63.341 221.338 63.341C221.192 60.121 219.099 53.2858 211.899 51.705C218.396 49.9487 229.973 47.0214 234.949 45.7773C235.314 45.6309 236.178 45.4699 236.705 45.9968C237.363 46.6555 241.095 51.2659 239.12 63.5606C238.417 69.181 238.095 71.6106 238.022 72.1229L242.851 76.5139C245.193 76.6602 250.227 76.5578 251.632 74.977C251.984 71.4643 252.218 61.5115 252.291 56.9742C252.145 53.8273 251.149 46.6555 248.34 43.1427M245.486 85.5153C243.144 82.5148 237.846 75.8552 235.388 73.2207C232.929 70.5861 226.607 67.4392 223.753 66.1951L220.021 64.8779C216.436 62.6824 209.133 58.3354 208.606 58.511C212.557 64.4776 228.363 65.5365 231.217 65.5365C234.07 65.5365 235.827 65.7561 240.437 66.6342C243.422 56.6229 239.485 47.3873 237.144 44.0209C239.412 43.8745 244.827 43.494 248.34 43.1427M248.34 43.1427L252.95 42.7036M252.95 42.7036C253.462 43.4354 254.486 45.4699 254.486 47.7532C254.486 50.0365 254.925 66.8538 255.145 74.977L268.975 77.3921L279.731 76.8736M252.95 42.7036H255.803M287.195 76.5139L283.244 76.7043M279.731 76.8736C280.317 75.0705 281.444 70.2787 281.268 65.5365C281.092 60.7943 280.463 51.1196 280.17 46.875L278.195 48.796M279.731 76.8736V78.2702H287.195C290.049 73.8061 295.01 63.4289 292.025 57.6328C290.971 62.5507 290.708 66.4147 290.708 67.732C290.488 71.3179 289.698 78.9289 288.293 80.6853C286.888 81.7391 285.805 82.7344 285.439 83.1003C284.707 83.3198 283.463 84.1102 284.341 85.5153C285.22 86.9204 290.122 95.029 292.464 98.9077C293.854 100.737 297.206 104.001 299.489 102.42C299.84 100.84 296.269 96.639 294.439 94.7363L285.659 83.9785L292.025 79.5875L323.417 56.3155L338.125 74.977L318.148 88.589V83.1003C317.05 82.8807 315.075 83.0501 315.075 85.5153M279.731 76.8736L283.244 76.7043M259.535 47.7532H256.777V44.0209M259.535 47.7532L258.886 46.875M259.535 47.7532C259.664 47.9209 259.836 48.1428 260.047 48.4118M259.535 47.7532C260.316 46.6555 261.51 43.8452 260.047 41.3863C258.218 38.3127 258.218 36.5563 259.535 35.0195C260.852 33.4826 262.389 33.0435 262.389 30.1894C262.389 29.397 262.389 28.2997 262.389 27.1158M255.803 42.7036C254.365 39.5862 252.131 33.5321 252.625 30.1894M255.803 42.7036C254.413 41.8986 251.413 39.8934 250.535 38.3127C248.603 34.7999 251.123 31.4335 252.625 30.1894M255.803 42.7036L256.777 44.0209M255.803 42.7036H258.218L258.886 46.875M253.388 28.433C255.672 26.1497 258.438 24.5544 259.535 24.0421M253.388 28.433C260.764 27.2036 260.56 24.9935 259.535 24.0421M253.388 28.433C252.976 28.8459 252.734 29.4516 252.625 30.1894M259.535 24.0421H260.413M256.777 44.0209L258.886 46.875M277.317 49.6498L272.268 54.5591C270.95 55.8764 267.658 57.7206 265.023 54.5591C262.853 51.9551 261.031 49.6688 260.047 48.4118M277.317 49.6498C277.17 52.2376 275.429 57.6328 269.633 58.511C262.389 59.6087 260.559 51.705 260.047 48.4118M277.317 49.6498L278.195 48.796M260.413 24.0421C260.486 23.1639 260.765 21.0123 261.291 19.4316C261.818 17.8509 263.121 18.0411 263.706 18.3339L262.389 20.9684C262.389 21.9975 262.389 23.6597 262.389 25.3594M260.413 24.0421L262.389 25.3594M262.389 25.3594C262.389 25.9486 262.389 26.5423 262.389 27.1158M262.389 27.1158H264.145V21.8466C264.072 20.8221 264.189 18.6851 265.243 18.3339C266.297 17.9826 266.414 20.5294 266.34 21.8466V25.5789L273.804 21.8466L274.756 21.4075M274.756 21.4075L276.658 20.5293C277.463 20.0903 278.151 19.1243 274.463 18.773C271.609 18.3339 270.072 19.2796 272.487 20.3098C273.541 20.8367 274.438 21.2612 274.756 21.4075ZM274.756 21.4075L289.61 28.433V31.2872L285 36.5563L278.634 42.7036C276.951 44.0941 272.663 46.3042 268.975 44.0209C266.165 40.6838 264.877 38.9713 264.584 38.5322L268.536 44.8991C268.902 45.7041 270.336 47.2263 273.146 46.875C275.956 46.875 277.683 46.5823 278.195 46.4359V48.796M315.075 85.5153C315.075 87.2717 315.148 89.3208 315.075 89.6867M315.075 85.5153C314.05 84.7835 312.001 84.0663 312.001 87.0521M312.001 87.0521C312.001 89.1598 312.001 90.8576 312.001 91.4431M312.001 87.0521C310.904 86.6131 308.709 86.3057 308.709 88.589C308.709 90.8723 308.709 92.7604 308.709 93.419L307.391 91.8822C306.513 90.7844 305.108 89.8184 306.513 94.7363C304.406 96.317 301.83 98.7613 300.806 99.7859L307.391 95.834L308.27 96.9318C308.855 97.2245 309.982 97.5026 309.806 96.2731C309.631 95.0437 310.611 95.029 311.123 95.1754C311.562 95.5413 312.397 95.6584 312.221 93.1994C313.319 93.8581 315.294 94.9558 314.855 92.1017C316.172 92.7604 318.368 92.5408 317.709 90.1258C318.763 89.9502 321.221 89.7599 322.319 89.6867L338.564 77.6116L322.978 59.1696L301.903 74.3184L298.391 61.8042C298.171 59.7551 296.942 55.3495 293.781 54.12C290.049 52.3637 282.585 48.1923 281.927 47.3141C283.024 50.6073 288.293 60.8678 283.244 76.7043M292.683 31.9458C290.634 29.1649 285.088 22.9444 279.292 20.3098C273.497 17.6752 268.975 16.5775 267.438 16.358C266.78 16.2848 265.287 16.358 264.584 17.2361C263.882 17.7631 262.389 17.7484 261.73 17.6752H259.535C260.34 17.0166 262.126 15.2163 262.828 13.2843C263.531 11.3523 266.194 7.64924 267.438 6.03922C269.487 3.40466 275.648 -1.07411 283.902 2.08737C290.927 4.72194 294.439 8.6006 295.318 10.2106C296.342 11.2352 297.996 14.2064 296.415 17.8948C295.01 21.5832 294.366 23.2371 294.22 23.603C293.927 24.6275 293.474 26.8523 294 27.5548C294.527 28.2574 294.22 29.604 294 30.1894C294.074 31.1408 293.913 32.824 292.683 31.9458Z" stroke="#303334" stroke-opacity="0.8"/>
<path d="M871 213.956L911.858 213.516L864.324 211.543V190.928H903.534L902.658 188.515H884.477L885.134 170.312L919.306 169.654V152.767H886.229V168.119H849.867V153.863H882.505L884.477 152.767H865.201V133.467L906.601 133.905L905.944 150.793H907.915L906.601 110L950.411 110.877V132.59L949.754 133.905H910.106V136.537L953.04 135.879V111.535H991.373V133.905H1013.28L1011.09 149.038V135.002H956.325L973.849 136.537V150.793H1009.77L1012.62 151.451H940.773V137.853H939.239V153.644L954.354 154.082L954.573 170.093L922.154 169.654L939.458 170.531V187.857L907.039 188.515L907.258 191.366H920.62L919.744 213.956H970.783V190.27H973.192L973.63 213.298L1016.56 211.982L1017 186.761H992.469V154.082L990.278 152.986L989.621 168.557L958.078 169.435L957.421 171.628L989.621 170.531L990.278 186.761H943.839L944.278 188.296L1020.07 189.392V211.982" stroke="#303334" stroke-opacity="0.8"/>
<path d="M620.133 25L660.991 25.4397L613.457 27.4124V48.0281H652.667L651.791 50.4406H633.61L634.267 68.6438L668.439 69.3018V86.1891H635.362V70.837H599V85.0925H631.639L633.61 86.1891H614.334V105.489L655.734 105.05L655.077 88.1629H657.048L655.734 128.956L699.544 128.078V106.366L698.887 105.05H659.239V102.418L702.173 103.076V127.42H740.506V105.05H762.411L760.221 89.9175V103.954H705.458L722.982 102.418V88.1629H758.907L761.754 87.505H689.906V101.103H688.372V85.3118L703.487 84.8732L703.706 68.8631L671.287 69.3018L688.591 68.4245V51.0985L656.172 50.4406L656.391 47.5895H669.753L668.877 25H719.916V48.6861H722.325L722.763 25.6579L765.697 26.9738L766.135 52.1951H741.602V84.8732L739.411 85.9698L738.754 70.3984L707.211 69.5211L706.554 67.3279L738.754 68.4245L739.411 52.1951H692.973L693.411 50.6599L769.202 49.5633V26.9738" stroke="#303334" stroke-opacity="0.8"/>
<path d="M438.133 114.956L478.991 114.516L431.457 112.543V91.9276H470.667L469.791 89.5151H451.61L452.267 71.3119L486.439 70.6539V53.7666H453.362V69.1187H417V54.8632H449.639L451.61 53.7666H432.334V34.4668L473.734 34.9054L473.077 51.7927H475.048L473.734 11L517.544 11.8773V33.5895L516.887 34.9054H477.239V37.5372L520.173 36.8793V12.5352H558.506V34.9054H580.411L578.221 50.0382V36.002H523.458L540.982 37.5372V51.7927H576.907L579.754 52.4507H507.906V38.8531H506.372V54.6439L521.487 55.0825L521.706 71.0926L489.287 70.6539L506.591 71.5312V88.8571L474.172 89.5151L474.391 92.3662H487.753L486.877 114.956H537.916V91.2696H540.325L540.763 114.298L583.697 112.982L584.135 87.7606H559.602V55.0825L557.411 53.9859L556.754 69.5573L525.211 70.4346L524.554 72.6278L556.754 71.5312L557.411 87.7606H510.973L511.411 89.2958L587.202 90.3924V112.982" stroke="#303334" stroke-opacity="0.8"/>
<path d="M353.133 115L393.991 115.44L346.457 117.413V138.028H385.667L384.791 140.441H366.61L367.267 158.644L401.439 159.302V176.189H368.362V160.837H332V175.093H364.639L366.61 176.189H347.334V195.489L388.734 195.05L388.077 178.163H390.048L388.734 218.956L432.544 218.079V196.366L431.887 195.05H392.239V192.419L435.173 193.077V217.421H473.506V195.05H495.411L493.221 179.918V193.954H438.458L455.982 192.419V178.163H491.907L494.754 177.505H422.906V191.103H421.372V175.312L436.487 174.873L436.706 158.863L404.287 159.302L421.591 158.425V141.099L389.172 140.441L389.391 137.59H402.753L401.877 115H452.916V138.686H455.325L455.763 115.658L498.697 116.974L499.135 142.195H474.602V174.873L472.411 175.97L471.754 160.398L440.211 159.521L439.554 157.328L471.754 158.425L472.411 142.195H425.973L426.411 140.66L502.202 139.563V116.974" stroke="#303334" stroke-opacity="0.8"/>
</svg>
