<svg width="900" height="229" viewBox="0 0 900 229" fill="none" xmlns="http://www.w3.org/2000/svg">
<path d="M900 228H667.027L714.883 225.257V204.682H676.247V202.396H695.126L693.809 183.421H660.222V165.132H693.809V180.678H730.25V166.275H697.541L696.004 164.218H714.883V144.557H673.174V162.846H671.857V120.553H629.049V144.557L630.367 145.7H669.881V147.986L625.976 147.072L626.635 120.553L625.976 118.953M625.976 118.953L624.659 121.467L588.218 121.925L588.657 145.014L566.266 145.7L568.241 161.246V147.072L622.683 146.386L605.341 147.986V162.846H569.339L566.266 163.76H638.709V149.129H640.465L640.684 165.589H625.318V183.421L657.368 182.735V183.421L640.465 184.107V201.71L671.857 202.396V204.682L659.344 205.368V228H608.853V203.539H606.658L605.341 228L563.192 226.857L562.095 200.338H586.901V166.275L589.096 165.132L589.755 181.592L621.366 182.049L622.244 184.107H589.755V200.338H636.074V201.71L559.46 203.539V226.857L493.904 224.911H415.046L462.58 222.857V201.39H423.37L424.246 198.878H442.428L441.77 179.924L407.599 179.238V161.654H440.675V177.64H477.038V162.796H444.399L442.428 161.654H461.704V141.557L420.304 142.014L420.961 159.599H418.989L420.304 117.122L376.494 118.035V140.644L377.151 142.014H416.799V144.755L373.865 144.069V118.72H335.531V142.014H313.626L315.817 157.772V143.156H370.579L353.055 144.755V159.599H317.131L314.283 160.284H386.132V146.125H387.665V162.567L372.551 163.024L372.332 179.695L404.751 179.238L387.446 180.152V198.193L419.865 198.878L419.646 201.847H406.284L407.161 225.369H356.122V200.705H353.712L353.274 224.684L310.341 223.314L309.902 197.051H334.436V163.024L336.627 161.882L337.284 178.097L368.827 179.01L369.484 181.294L337.284 180.152L336.627 197.051H383.065L382.627 198.65L306.836 199.792V223.314L280.988 222.857L219.873 223.314L267.845 221.03V199.792H228.854L229.949 197.051H247.692V178.553L213.082 177.183V159.599H246.159V175.813H282.302V160.969H249.226L247.692 159.599H266.969V139.73L225.568 140.187L226.444 157.543H224.692L225.568 115.295L181.758 115.752V138.36L183.072 140.187H222.063V142.928L179.13 142.242V116.893H141.015V140.187H118.891L121.081 155.26V141.557H176.282L157.882 143.156L158.539 157.543H121.958L118.891 158.457H191.615V144.298H193.149V160.74L177.815 161.426V178.097L210.235 177.183L193.149 178.553V196.595H225.568L224.692 199.792H211.987L212.644 223.542H161.606V198.878H159.196L158.539 222.629L115.605 221.487L114.948 195.453H139.701V161.426L142.11 160.055L142.767 176.498L174.091 176.955L175.187 179.238L142.548 178.782V195.453L188.33 194.768V196.595L112.319 197.965V221.487H0.5M625.976 118.953L628.391 115.066L611.049 100.206L644.855 115.981H649.246C650.124 116.057 651.353 115.798 649.246 114.152C647.138 112.506 644.27 110.265 643.099 109.351L661.1 115.981C656.856 113.009 648.236 106.562 647.709 104.55C647.182 102.538 648.514 102.95 649.246 103.407L656.929 108.208C658.685 109.046 662.198 109.808 662.198 106.15C662.198 102.493 662.198 98.9872 662.198 97.6917L667.686 119.638L633.001 118.953C633.074 117.505 632.562 115.112 629.928 117.124C629.05 117.809 628.391 118.724 625.537 116.438C623.254 114.609 617.268 108.36 614.561 105.464M625.976 118.953C624.922 115.843 623.342 115.981 622.683 116.438L620.708 117.124L618.512 112.551H615.659V110.723L612.684 106.15M614.561 105.464C601.829 104.779 592.609 113.237 590.413 115.295C588.657 116.941 589.389 117.657 589.974 117.809L592.609 115.066H598.097V111.408C598.609 111.408 600.072 111.408 601.829 111.408C603.023 110.009 608.748 107.628 612.684 106.15M614.561 105.464C614.014 105.658 613.376 105.89 612.684 106.15M650.124 94.9484C651.002 94.9484 653.109 94.9484 654.514 94.9484C657.5 97.6917 655.173 99.5968 653.636 100.206H652.099C643.245 100.587 624.835 101.349 622.025 101.349C619.215 101.349 619.976 100.13 620.708 99.5206C630.586 98.911 650.826 97.6917 652.758 97.6917C653.812 96.7773 653.197 95.4818 652.758 94.9484L652.099 92.8909L649.94 93.5088M650.124 94.9484C650.186 95.6799 647.808 96.0152 646.612 96.0914C639.294 96.32 624.264 96.823 622.683 97.0059C620.708 97.2345 624.659 94.9484 626.635 94.0339C627.293 91.2906 627.513 92.2051 629.049 92.2051C630.586 91.062 629.928 90.8334 631.025 89.0045C632.123 86.947 633.001 87.1756 634.977 89.0045C636.074 91.062 636.733 89.2331 637.611 87.8614C640.026 85.5753 641.562 87.1756 642.44 90.1475C642.616 92.5251 643.684 92.5099 644.197 92.2051C644.416 91.443 645.207 89.9647 646.612 90.1475C648.657 90.4138 649.586 92.0692 649.94 93.5088M650.124 94.9484C650.124 94.5545 650.072 94.0467 649.94 93.5088M652.099 92.2051C651.88 91.3668 652.056 89.5531 654.514 89.0045M654.514 89.0045C653.636 90.1475 652.758 91.5192 653.417 91.9764C654.075 92.4336 654.734 92.205 655.173 90.8334C656.051 92.205 659.124 94.9484 660.441 94.9484C661.539 94.9484 660.88 92.4337 658.905 90.1475C661.319 93.5088 665.71 98.6061 661.978 89.2331C663.076 91.062 663.515 92.6623 665.051 94.0339C666.281 95.1313 665.564 90.681 665.051 88.3187C665.49 90.2237 666.456 94.1254 666.808 94.4911C667.247 94.9484 670.1 93.1195 669.881 91.9764C669.661 90.8334 669.222 89.4617 669.881 88.3187C670.408 87.4042 672.881 83.975 674.052 82.3748C674.345 81.6889 675.457 80.1801 677.564 79.6314C679.672 79.0828 690.589 75.2878 695.785 73.4589L703.468 70.9442L706.102 70.0298C707.2 69.8011 709.395 68.9781 709.395 67.515C709.395 65.6861 710.493 60.1995 705.005 57.9134C699.517 55.6273 694.029 52.4267 687.443 56.7703C683.272 59.285 682.174 62.7142 681.955 65.9148C680.374 65.9148 679.101 65.9148 678.662 65.9148C678.808 62.5618 680.901 55.4444 688.101 53.7984C681.604 51.9695 670.027 48.9213 665.051 47.6259C664.686 47.4735 663.822 47.3058 663.295 47.8545C662.637 48.5403 658.905 53.3411 660.88 66.1434C661.583 71.9958 661.905 74.5258 661.978 75.0592L657.149 79.6314C654.807 79.7838 649.773 79.6771 648.368 78.0311C648.016 74.3734 647.782 64.0097 647.709 59.285C647.855 56.0083 648.851 48.5403 651.66 44.8825M654.514 89.0045C656.856 85.8801 662.154 78.9456 664.612 76.2022C667.071 73.4589 673.393 70.1822 676.247 68.8867L679.979 67.515C683.564 65.2289 690.867 60.7024 691.394 60.8853C687.443 67.0982 671.637 68.2009 668.783 68.2009C665.93 68.2009 664.173 68.4295 659.563 69.3439C656.578 58.9192 660.515 49.3024 662.856 45.797C660.588 45.6446 655.173 45.2483 651.66 44.8825M651.66 44.8825L647.05 44.4253M647.05 44.4253C646.538 45.1874 645.514 47.3058 645.514 49.6834C645.514 52.0609 645.075 69.5725 644.855 78.0311L631.025 80.5459L620.269 80.006M647.05 44.4253H644.197M612.805 79.6314L616.756 79.8297M620.269 80.006C619.683 78.1285 618.556 73.1389 618.732 68.2009C618.908 63.2629 619.537 53.1887 619.83 48.7689L621.805 50.7693M620.269 80.006V81.4603H612.805C609.951 76.8119 604.99 66.0062 607.975 59.9709C609.029 65.0917 609.292 69.1153 609.292 70.487C609.512 74.221 610.302 82.1461 611.707 83.975C613.112 85.0724 614.195 86.1087 614.561 86.4897C615.293 86.7184 616.537 87.5414 615.659 89.0045C614.78 90.4676 609.878 98.9109 607.536 102.95C606.146 104.855 602.794 108.254 600.511 106.608C600.16 104.962 603.731 100.587 605.561 98.6061L614.341 87.4042L607.975 82.832L576.583 58.5992L561.875 78.0311L581.852 92.2051V86.4897C582.95 86.2611 584.925 86.4375 584.925 89.0045M620.269 80.006L616.756 79.8297M640.465 49.6834H643.223V45.797M640.465 49.6834L641.114 48.7689M640.465 49.6834C640.336 49.858 640.164 50.0891 639.953 50.3692M640.465 49.6834C639.684 48.5403 638.49 45.6141 639.953 43.0536C641.782 39.8531 641.782 38.0242 640.465 36.4239C639.148 34.8236 637.611 34.3664 637.611 31.3945C637.611 30.5694 637.611 29.4267 637.611 28.1939M644.197 44.4253C645.635 41.1792 647.869 34.8751 647.375 31.3945M644.197 44.4253C645.587 43.5871 648.587 41.4991 649.465 39.8531C651.397 36.1953 648.877 32.6899 647.375 31.3945M644.197 44.4253L643.223 45.797M644.197 44.4253H641.782L641.114 48.7689M646.612 29.5656C644.328 27.188 641.562 25.5268 640.465 24.9934M646.612 29.5656C639.236 28.2854 639.44 25.984 640.465 24.9934M646.612 29.5656C647.024 29.9955 647.266 30.6262 647.375 31.3945M640.465 24.9934H639.587M643.223 45.797L641.114 48.7689M622.683 51.6583L627.732 56.7703C629.05 58.142 632.342 60.0623 634.977 56.7703C637.147 54.0587 638.969 51.678 639.953 50.3692M622.683 51.6583C622.83 54.353 624.571 59.9709 630.367 60.8853C637.611 62.0284 639.441 53.7984 639.953 50.3692M622.683 51.6583L621.805 50.7693M639.587 24.9934C639.514 24.0789 639.235 21.8385 638.709 20.1925C638.182 18.5465 636.879 18.7447 636.294 19.0495L637.611 21.7928C637.611 22.8643 637.611 24.5952 637.611 26.365M639.587 24.9934L637.611 26.365M637.611 26.365C637.611 26.9786 637.611 27.5968 637.611 28.1939M637.611 28.1939H635.855V22.7073C635.928 21.6404 635.811 19.4153 634.757 19.0495C633.703 18.6837 633.586 21.3356 633.66 22.7073V26.5937L626.196 22.7073L625.244 22.2501M625.244 22.2501L623.342 21.3356C622.537 20.8784 621.849 19.8725 625.537 19.5067C628.391 19.0495 629.928 20.0343 627.513 21.107C626.459 21.6557 625.562 22.0976 625.244 22.2501ZM625.244 22.2501L610.39 29.5656V32.5375L615 38.0242L621.366 44.4253C623.049 45.8732 627.337 48.1745 631.025 45.797C633.835 42.3221 635.123 40.5389 635.416 40.0817L631.464 46.7114C631.098 47.5497 629.664 49.1347 626.854 48.7689C624.044 48.7689 622.317 48.4641 621.805 48.3117V50.7693M584.925 89.0045C584.925 90.8333 584.852 92.9671 584.925 93.3481M584.925 89.0045C585.95 88.2424 587.999 87.4956 587.999 90.6047M587.999 90.6047C587.999 92.7994 587.999 94.5673 587.999 95.177M587.999 90.6047C589.096 90.1475 591.291 89.8275 591.291 92.2051C591.291 94.5826 591.291 96.5486 591.291 97.2345L592.609 95.6342C593.487 94.4911 594.892 93.4852 593.487 98.6061C595.594 100.252 598.17 102.797 599.194 103.864L592.609 99.7492L591.73 100.892C591.145 101.197 590.018 101.487 590.194 100.206C590.369 98.9262 589.389 98.9109 588.877 99.0633C588.438 99.4444 587.603 99.5663 587.779 97.0059C586.681 97.6917 584.706 98.8347 585.145 95.8628C583.828 96.5486 581.632 96.32 582.291 93.8053C581.237 93.6224 578.779 93.4243 577.681 93.3481L561.436 80.7745L577.022 61.5711L598.097 77.3453L601.609 64.3145C601.829 62.1808 603.058 57.5933 606.219 56.3131C609.951 54.4842 617.415 50.1406 618.073 49.2261C616.976 52.6553 611.707 63.3395 616.756 79.8297M607.317 33.2234C609.366 30.3276 614.912 23.8503 620.708 21.107C626.503 18.3637 631.025 17.2206 632.562 16.992C633.22 16.9158 634.713 16.992 635.416 17.9064C636.118 18.4551 637.611 18.4399 638.27 18.3637H640.465C639.66 17.6778 637.874 15.8032 637.172 13.7914C636.469 11.7797 633.806 7.92375 632.562 6.24727C630.513 3.50393 624.352 -1.15973 616.098 2.13227C609.073 4.8756 605.561 8.91439 604.682 10.5909C603.658 11.6577 602.004 14.7516 603.585 18.5923C604.99 22.4329 605.634 24.1551 605.78 24.5361C606.073 25.603 606.526 27.9196 606 28.6511C605.473 29.3827 605.78 30.7848 606 31.3945C605.926 32.3851 606.087 34.1378 607.317 33.2234Z" stroke="#303334" stroke-opacity="0.8"/>
</svg>
