<svg width="996" height="220" viewBox="0 0 996 220" fill="none" xmlns="http://www.w3.org/2000/svg">
<path d="M931.527 219L979.383 216.365V196.606H940.747V194.411H959.626L958.309 176.188H924.722V158.625H958.309V173.554H994.75V159.722H962.041L960.504 157.746H979.383V138.865H937.674V156.429H936.357V115.813H893.549V138.865L894.867 139.963H934.381V142.158L890.476 141.28L891.135 115.813L890.476 114.276M890.476 114.276L889.159 116.691L852.718 117.13L853.157 139.304L830.766 139.963L832.741 154.892V141.28L887.183 140.622L869.841 142.158V156.429H833.839L830.766 157.307H903.209V143.256H904.965L905.184 159.064H889.818V176.188L921.868 175.53V176.188L904.965 176.847V193.752L936.357 194.411V196.606L923.844 197.265V219H873.353V195.508H871.158L869.841 219L827.692 217.902L826.595 192.435H851.401V159.722L853.596 158.625L854.255 174.432L885.866 174.871L886.744 176.847H854.255V192.435H900.574V193.752L823.96 195.508V217.902L758.404 216.034H679.546L727.08 214.061V193.445H687.87L688.746 191.033H706.928L706.27 172.83L672.099 172.172V155.284H705.175V170.636H741.538V156.381H708.899L706.928 155.284H726.204V135.985L684.804 136.423L685.461 153.311H683.489L684.804 112.518L640.994 113.395V135.107L641.651 136.423H681.299V139.055L638.365 138.397V114.053H600.031V136.423H578.126L580.317 151.556V137.52H635.079L617.555 139.055V153.311H581.631L578.783 153.968H650.632V140.371H652.165V156.162L637.051 156.6L636.832 172.61L669.251 172.172L651.946 173.049V190.375L684.365 191.033L684.146 193.884H670.784L671.661 216.473H620.622V192.787H618.212L617.774 215.816L574.841 214.5L574.402 189.278H598.936V156.6L601.127 155.504L601.784 171.075L633.327 171.952L633.984 174.146L601.784 173.049L601.127 189.278H647.565L647.127 190.814L571.336 191.91V214.5L545.488 214.061L484.373 214.5L532.345 212.307V191.91H493.354L494.449 189.278H512.192V171.514L477.582 170.198V153.311H510.659V168.882H546.802V154.626H513.726L512.192 153.311H531.469V134.23L490.068 134.669L490.944 151.337H489.192L490.068 110.763L446.258 111.202V132.914L447.572 134.669H486.563V137.3L443.63 136.643V112.298H405.515V134.669H383.391L385.581 149.144V135.985H440.782L422.382 137.52L423.039 151.337H386.458L383.391 152.214H456.115V138.616H457.649V154.407L442.315 155.065V171.075L474.735 170.198L457.649 171.514V188.84H490.068L489.192 191.91H476.487L477.144 214.719H426.106V191.033H423.696L423.039 213.842L380.105 212.745L379.448 187.743H404.201V155.065L406.61 153.749L407.267 169.54L438.591 169.979L439.687 172.172L407.048 171.733V187.743L452.83 187.085V188.84L376.819 190.156V212.745H265M890.476 114.276L892.891 110.544L875.549 96.2731L909.355 111.422H913.746C914.624 111.495 915.853 111.246 913.746 109.666C911.638 108.085 908.77 105.933 907.599 105.055L925.6 111.422C921.356 108.568 912.736 102.377 912.209 100.445C911.682 98.5125 913.014 98.9077 913.746 99.3468L921.429 103.957C923.185 104.762 926.698 105.494 926.698 101.981C926.698 98.4686 926.698 95.1022 926.698 93.8581L932.186 114.935L897.501 114.276C897.574 112.886 897.062 110.588 894.428 112.52C893.55 113.178 892.891 114.056 890.037 111.861C887.754 110.105 881.768 104.104 879.061 101.323M890.476 114.276C889.422 111.29 887.842 111.422 887.183 111.861L885.208 112.52L883.012 108.129H880.159V106.372L877.184 101.981M879.061 101.323C866.329 100.664 857.109 108.787 854.913 110.763C853.157 112.344 853.889 113.032 854.474 113.178L857.109 110.544H862.597V107.031C863.109 107.031 864.572 107.031 866.329 107.031C867.523 105.687 873.248 103.4 877.184 101.981M879.061 101.323C878.514 101.509 877.876 101.732 877.184 101.981M914.624 91.2235C915.502 91.2235 917.609 91.2235 919.014 91.2235C922 93.8581 919.673 95.6877 918.136 96.2731H916.599C907.745 96.639 889.335 97.3709 886.525 97.3709C883.715 97.3709 884.476 96.2 885.208 95.6145C895.086 95.029 915.326 93.8581 917.258 93.8581C918.312 92.9799 917.697 91.7358 917.258 91.2235L916.599 89.2476L914.44 89.841M914.624 91.2235C914.686 91.9261 912.308 92.2481 911.112 92.3213C903.794 92.5408 888.764 93.0238 887.183 93.1995C885.208 93.419 889.159 91.2235 891.135 90.3454C891.793 87.7108 892.013 88.589 893.549 88.589C895.086 87.4913 894.428 87.2717 895.525 85.5153C896.623 83.5394 897.501 83.7589 899.477 85.5153C900.574 87.4912 901.233 85.7349 902.111 84.4176C904.526 82.2221 906.062 83.7589 906.94 86.6131C907.116 88.8964 908.184 88.8817 908.697 88.589C908.916 87.8572 909.707 86.4374 911.112 86.6131C913.157 86.8688 914.086 88.4586 914.44 89.841M914.624 91.2235C914.624 90.8453 914.572 90.3576 914.44 89.841M916.599 88.589C916.38 87.784 916.556 86.0422 919.014 85.5153M919.014 85.5153C918.136 86.6131 917.258 87.9303 917.917 88.3694C918.575 88.8085 919.234 88.589 919.673 87.2717C920.551 88.589 923.624 91.2235 924.941 91.2235C926.039 91.2235 925.38 88.8085 923.405 86.6131C925.819 89.841 930.21 94.7363 926.478 85.7349C927.576 87.4912 928.015 89.0281 929.551 90.3454C930.781 91.3992 930.064 87.1253 929.551 84.8567C929.99 86.6862 930.956 90.4332 931.308 90.7844C931.747 91.2235 934.6 89.4672 934.381 88.3694C934.161 87.2717 933.722 85.9544 934.381 84.8567C934.908 83.9785 937.381 80.6853 938.552 79.1484C938.845 78.4898 939.957 77.0408 942.064 76.5139C944.172 75.987 955.089 72.3425 960.285 70.5861L967.968 68.1711L970.602 67.2929C971.7 67.0733 973.895 66.283 973.895 64.8779C973.895 63.1215 974.993 57.8524 969.505 55.6569C964.017 53.4614 958.529 50.3878 951.943 54.5592C947.772 56.9742 946.674 60.2674 946.455 63.341C944.874 63.341 943.601 63.341 943.162 63.341C943.308 60.121 945.401 53.2858 952.601 51.705C946.104 49.9487 934.527 47.0214 929.551 45.7773C929.186 45.6309 928.322 45.4699 927.795 45.9968C927.137 46.6555 923.405 51.2659 925.38 63.5606C926.083 69.181 926.405 71.6106 926.478 72.1229L921.649 76.5139C919.307 76.6602 914.273 76.5578 912.868 74.977C912.516 71.4643 912.282 61.5115 912.209 56.9742C912.355 53.8273 913.351 46.6555 916.16 43.1427M919.014 85.5153C921.356 82.5148 926.654 75.8552 929.112 73.2207C931.571 70.5861 937.893 67.4392 940.747 66.1951L944.479 64.8779C948.064 62.6824 955.367 58.3354 955.894 58.511C951.943 64.4776 936.137 65.5365 933.283 65.5365C930.43 65.5365 928.673 65.7561 924.063 66.6342C921.078 56.6229 925.015 47.3873 927.356 44.0209C925.088 43.8745 919.673 43.494 916.16 43.1427M916.16 43.1427L911.55 42.7036M911.55 42.7036C911.038 43.4354 910.014 45.4699 910.014 47.7532C910.014 50.0365 909.575 66.8538 909.355 74.977L895.525 77.3921L884.769 76.8736M911.55 42.7036H908.697M877.305 76.5139L881.256 76.7043M884.769 76.8736C884.183 75.0705 883.056 70.2787 883.232 65.5365C883.408 60.7943 884.037 51.1196 884.33 46.875L886.305 48.796M884.769 76.8736V78.2702H877.305C874.451 73.8061 869.49 63.4289 872.475 57.6328C873.529 62.5507 873.792 66.4147 873.792 67.732C874.012 71.3179 874.802 78.9289 876.207 80.6853C877.612 81.7391 878.695 82.7344 879.061 83.1003C879.793 83.3198 881.037 84.1102 880.159 85.5153C879.28 86.9204 874.378 95.029 872.036 98.9077C870.646 100.737 867.294 104.001 865.011 102.42C864.66 100.84 868.231 96.639 870.061 94.7363L878.841 83.9785L872.475 79.5875L841.083 56.3155L826.375 74.977L846.352 88.589V83.1003C847.45 82.8807 849.425 83.0501 849.425 85.5153M884.769 76.8736L881.256 76.7043M904.965 47.7532H907.723V44.0209M904.965 47.7532L905.614 46.875M904.965 47.7532C904.836 47.9209 904.664 48.1428 904.453 48.4118M904.965 47.7532C904.184 46.6555 902.99 43.8452 904.453 41.3863C906.282 38.3127 906.282 36.5563 904.965 35.0195C903.648 33.4826 902.111 33.0435 902.111 30.1894C902.111 29.397 902.111 28.2997 902.111 27.1158M908.697 42.7036C910.135 39.5862 912.369 33.5321 911.875 30.1894M908.697 42.7036C910.087 41.8986 913.087 39.8934 913.965 38.3127C915.897 34.7999 913.377 31.4335 911.875 30.1894M908.697 42.7036L907.723 44.0209M908.697 42.7036H906.282L905.614 46.875M911.112 28.433C908.828 26.1497 906.062 24.5544 904.965 24.0421M911.112 28.433C903.736 27.2036 903.94 24.9935 904.965 24.0421M911.112 28.433C911.524 28.8459 911.766 29.4516 911.875 30.1894M904.965 24.0421H904.087M907.723 44.0209L905.614 46.875M887.183 49.6498L892.232 54.5591C893.55 55.8764 896.842 57.7206 899.477 54.5591C901.647 51.9551 903.469 49.6688 904.453 48.4118M887.183 49.6498C887.33 52.2376 889.071 57.6328 894.867 58.511C902.111 59.6087 903.941 51.705 904.453 48.4118M887.183 49.6498L886.305 48.796M904.087 24.0421C904.014 23.1639 903.735 21.0123 903.209 19.4316C902.682 17.8509 901.379 18.0411 900.794 18.3339L902.111 20.9684C902.111 21.9975 902.111 23.6597 902.111 25.3594M904.087 24.0421L902.111 25.3594M902.111 25.3594C902.111 25.9486 902.111 26.5423 902.111 27.1158M902.111 27.1158H900.355V21.8466C900.428 20.8221 900.311 18.6851 899.257 18.3339C898.203 17.9826 898.086 20.5294 898.16 21.8466V25.5789L890.696 21.8466L889.744 21.4075M889.744 21.4075L887.842 20.5293C887.037 20.0903 886.349 19.1243 890.037 18.773C892.891 18.3339 894.428 19.2796 892.013 20.3098C890.959 20.8367 890.062 21.2612 889.744 21.4075ZM889.744 21.4075L874.89 28.433V31.2872L879.5 36.5563L885.866 42.7036C887.549 44.0941 891.837 46.3042 895.525 44.0209C898.335 40.6838 899.623 38.9713 899.916 38.5322L895.964 44.8991C895.598 45.7041 894.164 47.2263 891.354 46.875C888.544 46.875 886.817 46.5823 886.305 46.4359V48.796M849.425 85.5153C849.425 87.2717 849.352 89.3208 849.425 89.6867M849.425 85.5153C850.45 84.7835 852.499 84.0663 852.499 87.0521M852.499 87.0521C852.499 89.1598 852.499 90.8576 852.499 91.4431M852.499 87.0521C853.596 86.6131 855.791 86.3057 855.791 88.589C855.791 90.8723 855.791 92.7604 855.791 93.419L857.109 91.8822C857.987 90.7844 859.392 89.8184 857.987 94.7363C860.094 96.317 862.67 98.7613 863.694 99.7859L857.109 95.834L856.23 96.9318C855.645 97.2245 854.518 97.5026 854.694 96.2731C854.869 95.0437 853.889 95.029 853.377 95.1754C852.938 95.5413 852.103 95.6584 852.279 93.1994C851.181 93.8581 849.206 94.9558 849.645 92.1017C848.328 92.7604 846.132 92.5408 846.791 90.1258C845.737 89.9502 843.279 89.7599 842.181 89.6867L825.936 77.6116L841.522 59.1696L862.597 74.3184L866.109 61.8042C866.329 59.7551 867.558 55.3495 870.719 54.12C874.451 52.3637 881.915 48.1923 882.573 47.3141C881.476 50.6073 876.207 60.8678 881.256 76.7043M871.817 31.9458C873.866 29.1649 879.412 22.9444 885.208 20.3098C891.003 17.6752 895.525 16.5775 897.062 16.358C897.72 16.2848 899.213 16.358 899.916 17.2361C900.618 17.7631 902.111 17.7484 902.77 17.6752H904.965C904.16 17.0166 902.374 15.2163 901.672 13.2843C900.969 11.3523 898.306 7.64924 897.062 6.03922C895.013 3.40466 888.852 -1.07411 880.598 2.08737C873.573 4.72194 870.061 8.6006 869.182 10.2106C868.158 11.2352 866.504 14.2064 868.085 17.8948C869.49 21.5832 870.134 23.2371 870.28 23.603C870.573 24.6275 871.026 26.8523 870.5 27.5548C869.973 28.2574 870.28 29.604 870.5 30.1894C870.426 31.1408 870.587 32.824 871.817 31.9458Z" stroke="#303334" stroke-opacity="0.8"/>
<path d="M364.069 208.956L323.211 208.516L370.745 206.543V185.928H331.535L332.411 183.515H350.592L349.935 165.312L315.763 164.654V147.767H348.84V163.119H385.202V148.863H352.563L350.592 147.767H369.868V128.467L328.468 128.905L329.125 145.793H327.154L328.468 105L284.658 105.877V127.59L285.315 128.905H324.963V131.537L282.029 130.879V106.535H243.696V128.905H221.791L223.981 144.038V130.002H278.744L261.22 131.537V145.793H225.295L222.448 146.451H294.296V132.853H295.829V148.644L280.715 149.082L280.496 165.093L312.915 164.654L295.61 165.531V182.857L328.03 183.515L327.811 186.366H314.449L315.325 208.956H264.286V185.27H261.877L261.439 208.298L218.505 206.982L218.067 181.761H242.6V149.082L244.791 147.986L245.448 163.557L276.991 164.435L277.648 166.628L245.448 165.531L244.791 181.761H291.229L290.791 183.296L215 184.392V206.982" stroke="#303334" stroke-opacity="0.6"/>
<path d="M116.133 24L156.991 24.4398L109.457 26.4125V47.0282H148.667L147.791 49.4406H129.61L130.267 67.6439L164.439 68.3018V85.1891H131.362V69.837H94.9998V84.0925H127.638L129.61 85.1891H110.333V104.489L151.734 104.05L151.077 87.163H153.048L151.734 127.956L195.544 127.078V105.366L194.887 104.05H155.239V101.418L198.172 102.076V126.421H236.506V104.05H258.411L256.221 88.9175V102.954H201.458L218.982 101.418V87.163H254.906L257.754 86.505H185.906V100.103H184.372V84.3119L199.487 83.8732L199.706 67.8632L167.286 68.3018L184.591 67.4245V50.0986L152.172 49.4406L152.391 46.5895H165.753L164.877 24H215.915V47.6861H218.325L218.763 24.6579L261.697 25.9738L262.135 51.1952H237.601V83.8732L235.411 84.9698L234.754 69.3984L203.211 68.5211L202.553 66.3279L234.754 67.4245L235.411 51.1952H188.972L189.41 49.66L265.202 48.5634V25.9738" stroke="#303334" stroke-opacity="0.6"/>
<path d="M22.1329 208.956L62.991 208.516L15.4571 206.543V185.928H54.6671L53.7909 183.515H35.6097L36.2669 165.312L70.4387 164.654V147.767H37.3621V163.119H0.999817V148.863H33.6383L35.6097 147.767H16.3333V128.467L57.7338 128.905L57.0766 145.793H59.0481L57.7338 105L101.544 105.877V127.59L100.887 128.905H61.2386V131.537L104.172 130.879V106.535H142.506V128.905H164.411L162.221 144.038V130.002H107.458L124.982 131.537V145.793H160.906L163.754 146.451H91.9055V132.853H90.3722V148.644L105.487 149.082L105.706 165.093L73.2863 164.654L90.5912 165.531V182.857L58.1719 183.515L58.3909 186.366H71.753L70.8768 208.956H121.915V185.27H124.325L124.763 208.298L167.697 206.982L168.135 181.761H143.601V149.082L141.411 147.986L140.754 163.557L109.211 164.435L108.553 166.628L140.754 165.531L141.411 181.761H94.9723L95.4104 183.296L171.202 184.392V206.982" stroke="#303334" stroke-opacity="0.6"/>
</svg>
