<svg width="1422" height="431" viewBox="0 0 1422 431" fill="none" xmlns="http://www.w3.org/2000/svg">
<path d="M308 428.093H470.702L372.629 424.025V381.51H453.528L451.72 376.535H414.208L415.564 338.996L486.069 337.639V302.813H417.824V334.473H342.8V305.075H410.141L414.208 302.813H374.437V263.012L459.855 263.917L458.5 298.743H462.567L459.855 214.618L550.246 216.427V261.203L548.89 263.917H467.087V269.344L555.669 267.988V217.784H634.76V263.917H679.955L675.436 295.125V266.178H562.448L598.604 269.344V298.743H672.724L678.599 300.1H530.36V272.058H527.196V304.622L558.381 305.527L558.833 338.544L491.944 337.639L527.648 339.448V375.178L460.759 376.535L461.211 382.415H488.78L486.972 429H592.277V380.154H597.248L598.152 427.643L686.735 424.929L687.638 372.917H637.02V305.527L632.5 303.266L631.145 335.378L566.064 337.187L564.708 341.71L631.145 339.448L632.5 372.917H536.687L537.591 376.083L693.966 378.344V424.929L747.296 424.025L873.39 424.929L774.413 420.407V378.344H854.86L852.6 372.917H815.992V336.282L887.401 333.568V298.743H819.156V330.855H744.584V301.456H812.829L815.992 298.743H776.221V259.394L861.639 260.299L859.832 294.672H863.447L861.639 211L952.03 211.905V256.68L949.318 260.299H868.871V265.726L957.453 264.369V214.166H1036.09V260.299H1081.74L1077.22 290.149V263.012H963.328L1001.29 266.178L999.936 294.672H1075.41L1081.74 296.481H931.692V268.44H928.528V301.004L960.165 302.361V335.378L893.276 333.568L928.528 336.282V372.012H861.639L863.447 378.344H889.66L888.304 425.382H993.609V376.535H998.58L999.936 423.573L1088.52 421.311L1089.87 369.751H1038.8V302.361L1033.83 299.647L1032.48 332.212L967.848 333.116L965.588 337.639L1032.93 336.734V369.751L938.471 368.394V372.012L1095.3 374.726V421.311L1130 420.407" stroke="#303334" stroke-opacity="0.15"/>
<path d="M1113.58 420L1197.84 419.09L1099.81 415.011V372.373H1180.68L1178.87 367.384H1141.37L1142.73 329.736L1213.2 328.376V293.449H1144.99V325.2H1070V295.717H1137.31L1141.37 293.449H1101.62V253.534L1187 254.441L1185.64 289.367H1189.71L1187 205L1277.35 206.814V251.719L1275.99 254.441H1194.23V259.884L1282.77 258.523V208.175H1361.82V254.441H1407L1402.48 285.738V256.709H1289.54L1325.68 259.884V289.367H1399.77L1405.64 290.728H1257.47V262.605H1254.31V295.264L1285.48 296.171L1285.93 329.283L1219.07 328.376L1254.76 330.19V366.023L1187.9 367.384L1188.36 373.281H1215.91L1214.1 420H1319.36V371.013H1324.33L1325.23 418.639L1413.77 415.918L1414.68 363.755H1364.08V296.171L1359.56 293.903L1358.21 326.108L1293.16 327.922L1291.8 332.458L1358.21 330.19L1359.56 363.755H1263.8L1264.7 366.93L1421 369.198V415.918" stroke="#303334" stroke-opacity="0.15"/>
<path d="M595.582 30L679.842 30.9053L581.815 34.9662V77.4051H662.676L660.869 82.3713H623.375L624.73 119.844L695.201 121.198V155.962H626.988V124.359H552V153.705H619.309L623.375 155.962H583.622V195.692L669 194.789L667.645 160.025H671.71L669 244L759.347 242.194V197.498L757.992 194.789H676.228V189.371L764.768 190.726V240.84H843.822V194.789H888.996L884.479 163.637V192.532H771.544L807.683 189.371V160.025H881.768L887.641 158.671H739.471V186.662H736.309V154.156L767.479 153.253L767.931 120.295L701.073 121.198L736.761 119.392V83.7257L669.904 82.3713L670.355 76.5021H697.911L696.104 30H801.359V78.7595H806.328L807.232 31.3544L895.772 34.0633L896.676 85.9831H846.081V153.253L841.564 155.511L840.208 123.456L775.158 121.65L773.803 117.135L840.208 119.392L841.564 85.9831H745.795L746.699 82.8228L903 80.5654V34.0633" stroke="#303334" stroke-opacity="0.15"/>
<path d="M220.582 215L304.842 214.095L206.815 210.034V167.595H287.676L285.869 162.629H248.375L249.73 125.156L320.201 123.802V89.038H251.988V120.641H177V91.2954H244.309L248.375 89.038H208.622V49.308L294 50.211L292.645 84.9747H296.71L294 1L384.347 2.80591V47.5021L382.992 50.211H301.228V55.6287L389.768 54.2743V4.16033H468.822V50.211H513.996L509.479 81.3629V52.4683H396.544L432.683 55.6287V84.9747H506.768L512.641 86.3291H364.471V58.3375H361.309V90.8439L392.479 91.7468L392.931 124.705L326.073 123.802L361.761 125.608V161.274L294.904 162.629L295.355 168.498H322.911L321.104 215H426.359V166.241H431.328L432.232 213.646L520.772 210.937L521.676 159.017H471.081V91.7468L466.564 89.4894L465.208 121.544L400.158 123.35L398.803 127.865L465.208 125.608L466.564 159.017H370.795L371.699 162.177L528 164.435V210.937" stroke="#303334" stroke-opacity="0.15"/>
<path d="M44.5819 216L128.842 216.905L30.8147 220.966V263.405H111.676L109.869 268.371H72.3745L73.7298 305.844L144.201 307.198V341.962H75.9884V310.359H1.00001V339.705H68.3089L72.3745 341.962H32.6216V381.692L118 380.789L116.645 346.025H120.71L118 430L208.347 428.194V383.498L206.992 380.789H125.228V375.371L213.768 376.726V426.84H292.822V380.789H337.996L333.479 349.637V378.532H220.544L256.683 375.371V346.025H330.768L336.641 344.671H188.471V372.662H185.309V340.156L216.479 339.253L216.931 306.295L150.073 307.198L185.761 305.392V269.726L118.904 268.371L119.355 262.502H146.911L145.104 216H250.359V264.759H255.328L256.232 217.354L344.772 220.063L345.676 271.983H295.081V339.253L290.564 341.511L289.208 309.456L224.158 307.65L222.803 303.135L289.208 305.392L290.564 271.983H194.795L195.699 268.823L352 266.565V220.063" stroke="#303334" stroke-opacity="0.15"/>
</svg>
