<svg width="900" height="220" viewBox="0 0 900 220" fill="none" xmlns="http://www.w3.org/2000/svg">
<path d="M899.5 219H666.527L714.383 216.365V196.606H675.747V194.411H694.626L693.309 176.188H659.722V158.625H693.309V173.554H729.75V159.722H697.041L695.504 157.746H714.383V138.865H672.674V156.429H671.357V115.813H628.549V138.865L629.867 139.963H669.381V142.158L625.476 141.28L626.135 115.813L625.476 114.276M625.476 114.276L624.159 116.691L587.718 117.13L588.157 139.304L565.766 139.963L567.741 154.892V141.28L622.183 140.622L604.841 142.158V156.429H568.839L565.766 157.307H638.209V143.256H639.965L640.184 159.064H624.818V176.188L656.868 175.53V176.188L639.965 176.847V193.752L671.357 194.411V196.606L658.844 197.265V219H608.353V195.508H606.158L604.841 219L562.692 217.902L561.595 192.435H586.401V159.722L588.596 158.625L589.255 174.432L620.866 174.871L621.744 176.847H589.255V192.435H635.574V193.752L558.96 195.508V217.902L493.404 216.034H414.546L462.08 214.061V193.445H422.87L423.746 191.033H441.928L441.27 172.83L407.099 172.172V155.284H440.175V170.636H476.538V156.381H443.899L441.928 155.284H461.204V135.985L419.804 136.423L420.461 153.311H418.489L419.804 112.518L375.994 113.395V135.107L376.651 136.423H416.299V139.055L373.365 138.397V114.053H335.031V136.423H313.126L315.317 151.556V137.52H370.079L352.555 139.055V153.311H316.631L313.783 153.968H385.632V140.371H387.165V156.162L372.051 156.6L371.832 172.61L404.251 172.172L386.946 173.049V190.375L419.365 191.033L419.146 193.884H405.784L406.661 216.473H355.622V192.787H353.212L352.774 215.816L309.841 214.5L309.402 189.278H333.936V156.6L336.127 155.504L336.784 171.075L368.327 171.952L368.984 174.146L336.784 173.049L336.127 189.278H382.565L382.127 190.814L306.336 191.91V214.5L280.488 214.061L219.373 214.5L267.345 212.307V191.91H228.354L229.449 189.278H247.192V171.514L212.582 170.198V153.311H245.659V168.882H281.802V154.626H248.726L247.192 153.311H266.469V134.23L225.068 134.669L225.944 151.337H224.192L225.068 110.763L181.258 111.202V132.914L182.572 134.669H221.563V137.3L178.63 136.643V112.298H140.515V134.669H118.391L120.581 149.144V135.985H175.782L157.382 137.52L158.039 151.337H121.458L118.391 152.214H191.115V138.616H192.649V154.407L177.315 155.065V171.075L209.735 170.198L192.649 171.514V188.84H225.068L224.192 191.91H211.487L212.144 214.719H161.106V191.033H158.696L158.039 213.842L115.105 212.745L114.448 187.743H139.201V155.065L141.61 153.749L142.267 169.54L173.591 169.979L174.687 172.172L142.048 171.733V187.743L187.83 187.085V188.84L111.819 190.156V212.745H0M625.476 114.276L627.891 110.544L610.549 96.2731L644.355 111.422H648.746C649.624 111.495 650.853 111.246 648.746 109.666C646.638 108.085 643.77 105.933 642.599 105.055L660.6 111.422C656.356 108.568 647.736 102.377 647.209 100.445C646.682 98.5125 648.014 98.9077 648.746 99.3468L656.429 103.957C658.185 104.762 661.698 105.494 661.698 101.981C661.698 98.4686 661.698 95.1022 661.698 93.8581L667.186 114.935L632.501 114.276C632.574 112.886 632.062 110.588 629.428 112.52C628.55 113.178 627.891 114.056 625.037 111.861C622.754 110.105 616.768 104.104 614.061 101.323M625.476 114.276C624.422 111.29 622.842 111.422 622.183 111.861L620.208 112.52L618.012 108.129H615.159V106.372L612.184 101.981M614.061 101.323C601.329 100.664 592.109 108.787 589.913 110.763C588.157 112.344 588.889 113.032 589.474 113.178L592.109 110.544H597.597V107.031C598.109 107.031 599.572 107.031 601.329 107.031C602.523 105.687 608.248 103.4 612.184 101.981M614.061 101.323C613.514 101.509 612.876 101.732 612.184 101.981M649.624 91.2235C650.502 91.2235 652.609 91.2235 654.014 91.2235C657 93.8581 654.673 95.6877 653.136 96.2731H651.599C642.745 96.639 624.335 97.3709 621.525 97.3709C618.715 97.3709 619.476 96.2 620.208 95.6145C630.086 95.029 650.326 93.8581 652.258 93.8581C653.312 92.9799 652.697 91.7358 652.258 91.2235L651.599 89.2476L649.44 89.841M649.624 91.2235C649.686 91.9261 647.308 92.2481 646.112 92.3213C638.794 92.5408 623.764 93.0238 622.183 93.1995C620.208 93.419 624.159 91.2235 626.135 90.3454C626.793 87.7108 627.013 88.589 628.549 88.589C630.086 87.4913 629.428 87.2717 630.525 85.5153C631.623 83.5394 632.501 83.7589 634.477 85.5153C635.574 87.4912 636.233 85.7349 637.111 84.4176C639.526 82.2221 641.062 83.7589 641.94 86.6131C642.116 88.8964 643.184 88.8817 643.697 88.589C643.916 87.8572 644.707 86.4374 646.112 86.6131C648.157 86.8688 649.086 88.4586 649.44 89.841M649.624 91.2235C649.624 90.8453 649.572 90.3576 649.44 89.841M651.599 88.589C651.38 87.784 651.556 86.0422 654.014 85.5153M654.014 85.5153C653.136 86.6131 652.258 87.9303 652.917 88.3694C653.575 88.8085 654.234 88.589 654.673 87.2717C655.551 88.589 658.624 91.2235 659.941 91.2235C661.039 91.2235 660.38 88.8085 658.405 86.6131C660.819 89.841 665.21 94.7363 661.478 85.7349C662.576 87.4912 663.015 89.0281 664.551 90.3454C665.781 91.3992 665.064 87.1253 664.551 84.8567C664.99 86.6862 665.956 90.4332 666.308 90.7844C666.747 91.2235 669.6 89.4672 669.381 88.3694C669.161 87.2717 668.722 85.9544 669.381 84.8567C669.908 83.9785 672.381 80.6853 673.552 79.1484C673.845 78.4898 674.957 77.0408 677.064 76.5139C679.172 75.987 690.089 72.3425 695.285 70.5861L702.968 68.1711L705.602 67.2929C706.7 67.0733 708.895 66.283 708.895 64.8779C708.895 63.1215 709.993 57.8524 704.505 55.6569C699.017 53.4614 693.529 50.3878 686.943 54.5592C682.772 56.9742 681.674 60.2674 681.455 63.341C679.874 63.341 678.601 63.341 678.162 63.341C678.308 60.121 680.401 53.2858 687.601 51.705C681.104 49.9487 669.527 47.0214 664.551 45.7773C664.186 45.6309 663.322 45.4699 662.795 45.9968C662.137 46.6555 658.405 51.2659 660.38 63.5606C661.083 69.181 661.405 71.6106 661.478 72.1229L656.649 76.5139C654.307 76.6602 649.273 76.5578 647.868 74.977C647.516 71.4643 647.282 61.5115 647.209 56.9742C647.355 53.8273 648.351 46.6555 651.16 43.1427M654.014 85.5153C656.356 82.5148 661.654 75.8552 664.112 73.2207C666.571 70.5861 672.893 67.4392 675.747 66.1951L679.479 64.8779C683.064 62.6824 690.367 58.3354 690.894 58.511C686.943 64.4776 671.137 65.5365 668.283 65.5365C665.43 65.5365 663.673 65.7561 659.063 66.6342C656.078 56.6229 660.015 47.3873 662.356 44.0209C660.088 43.8745 654.673 43.494 651.16 43.1427M651.16 43.1427L646.55 42.7036M646.55 42.7036C646.038 43.4354 645.014 45.4699 645.014 47.7532C645.014 50.0365 644.575 66.8538 644.355 74.977L630.525 77.3921L619.769 76.8736M646.55 42.7036H643.697M612.305 76.5139L616.256 76.7043M619.769 76.8736C619.183 75.0705 618.056 70.2787 618.232 65.5365C618.408 60.7943 619.037 51.1196 619.33 46.875L621.305 48.796M619.769 76.8736V78.2702H612.305C609.451 73.8061 604.49 63.4289 607.475 57.6328C608.529 62.5507 608.792 66.4147 608.792 67.732C609.012 71.3179 609.802 78.9289 611.207 80.6853C612.612 81.7391 613.695 82.7344 614.061 83.1003C614.793 83.3198 616.037 84.1102 615.159 85.5153C614.28 86.9204 609.378 95.029 607.036 98.9077C605.646 100.737 602.294 104.001 600.011 102.42C599.66 100.84 603.231 96.639 605.061 94.7363L613.841 83.9785L607.475 79.5875L576.083 56.3155L561.375 74.977L581.352 88.589V83.1003C582.45 82.8807 584.425 83.0501 584.425 85.5153M619.769 76.8736L616.256 76.7043M639.965 47.7532H642.723V44.0209M639.965 47.7532L640.614 46.875M639.965 47.7532C639.836 47.9209 639.664 48.1428 639.453 48.4118M639.965 47.7532C639.184 46.6555 637.99 43.8452 639.453 41.3863C641.282 38.3127 641.282 36.5563 639.965 35.0195C638.648 33.4826 637.111 33.0435 637.111 30.1894C637.111 29.397 637.111 28.2997 637.111 27.1158M643.697 42.7036C645.135 39.5862 647.369 33.5321 646.875 30.1894M643.697 42.7036C645.087 41.8986 648.087 39.8934 648.965 38.3127C650.897 34.7999 648.377 31.4335 646.875 30.1894M643.697 42.7036L642.723 44.0209M643.697 42.7036H641.282L640.614 46.875M646.112 28.433C643.828 26.1497 641.062 24.5544 639.965 24.0421M646.112 28.433C638.736 27.2036 638.94 24.9935 639.965 24.0421M646.112 28.433C646.524 28.8459 646.766 29.4516 646.875 30.1894M639.965 24.0421H639.087M642.723 44.0209L640.614 46.875M622.183 49.6498L627.232 54.5591C628.55 55.8764 631.842 57.7206 634.477 54.5591C636.647 51.9551 638.469 49.6688 639.453 48.4118M622.183 49.6498C622.33 52.2376 624.071 57.6328 629.867 58.511C637.111 59.6087 638.941 51.705 639.453 48.4118M622.183 49.6498L621.305 48.796M639.087 24.0421C639.014 23.1639 638.735 21.0123 638.209 19.4316C637.682 17.8509 636.379 18.0411 635.794 18.3339L637.111 20.9684C637.111 21.9975 637.111 23.6597 637.111 25.3594M639.087 24.0421L637.111 25.3594M637.111 25.3594C637.111 25.9486 637.111 26.5423 637.111 27.1158M637.111 27.1158H635.355V21.8466C635.428 20.8221 635.311 18.6851 634.257 18.3339C633.203 17.9826 633.086 20.5294 633.16 21.8466V25.5789L625.696 21.8466L624.744 21.4075M624.744 21.4075L622.842 20.5293C622.037 20.0903 621.349 19.1243 625.037 18.773C627.891 18.3339 629.428 19.2796 627.013 20.3098C625.959 20.8367 625.062 21.2612 624.744 21.4075ZM624.744 21.4075L609.89 28.433V31.2872L614.5 36.5563L620.866 42.7036C622.549 44.0941 626.837 46.3042 630.525 44.0209C633.335 40.6838 634.623 38.9713 634.916 38.5322L630.964 44.8991C630.598 45.7041 629.164 47.2263 626.354 46.875C623.544 46.875 621.817 46.5823 621.305 46.4359V48.796M584.425 85.5153C584.425 87.2717 584.352 89.3208 584.425 89.6867M584.425 85.5153C585.45 84.7835 587.499 84.0663 587.499 87.0521M587.499 87.0521C587.499 89.1598 587.499 90.8576 587.499 91.4431M587.499 87.0521C588.596 86.6131 590.791 86.3057 590.791 88.589C590.791 90.8723 590.791 92.7604 590.791 93.419L592.109 91.8822C592.987 90.7844 594.392 89.8184 592.987 94.7363C595.094 96.317 597.67 98.7613 598.694 99.7859L592.109 95.834L591.23 96.9318C590.645 97.2245 589.518 97.5026 589.694 96.2731C589.869 95.0437 588.889 95.029 588.377 95.1754C587.938 95.5413 587.103 95.6584 587.279 93.1994C586.181 93.8581 584.206 94.9558 584.645 92.1017C583.328 92.7604 581.132 92.5408 581.791 90.1258C580.737 89.9502 578.279 89.7599 577.181 89.6867L560.936 77.6116L576.522 59.1696L597.597 74.3184L601.109 61.8042C601.329 59.7551 602.558 55.3495 605.719 54.12C609.451 52.3637 616.915 48.1923 617.573 47.3141C616.476 50.6073 611.207 60.8678 616.256 76.7043M606.817 31.9458C608.866 29.1649 614.412 22.9444 620.208 20.3098C626.003 17.6752 630.525 16.5775 632.062 16.358C632.72 16.2848 634.213 16.358 634.916 17.2361C635.618 17.7631 637.111 17.7484 637.77 17.6752H639.965C639.16 17.0166 637.374 15.2163 636.672 13.2843C635.969 11.3523 633.306 7.64924 632.062 6.03922C630.013 3.40466 623.852 -1.07411 615.598 2.08737C608.573 4.72194 605.061 8.6006 604.182 10.2106C603.158 11.2352 601.504 14.2064 603.085 17.8948C604.49 21.5832 605.134 23.2371 605.28 23.603C605.573 24.6275 606.026 26.8523 605.5 27.5548C604.973 28.2574 605.28 29.604 605.5 30.1894C605.426 31.1408 605.587 32.824 606.817 31.9458Z" stroke="#303334" stroke-opacity="0.8"/>
</svg>
