<svg width="1514" height="289" viewBox="0 0 1514 289" fill="none" xmlns="http://www.w3.org/2000/svg">
<path d="M0.0956116 291.036H78.9536L31.4198 289.063V268.448H70.6297L69.7535 266.035H51.5724L52.2295 247.832L86.4013 247.174V230.287H53.3248V245.639H16.9625V231.383H49.6009L51.5724 230.287H32.296V210.987L73.6964 211.426L73.0392 228.313H75.0107L73.6964 187.52L117.506 188.397V210.11L116.849 211.426H77.2012V214.057L120.135 213.399V189.055H158.469V211.426H180.374L178.183 226.558V212.522H123.421L140.945 214.057V228.313H176.869L179.717 228.971H107.868V215.373H106.335V231.164L121.449 231.603L121.668 247.613L89.249 247.174L106.554 248.051V265.377L74.1345 266.035L74.3535 268.886H87.7156L86.8394 291.476H137.878V267.79H140.288L140.726 290.818L183.659 289.502L184.098 264.281H159.564V231.603L157.373 230.506L156.716 246.077L125.173 246.955L124.516 249.148L156.716 248.051L157.373 264.281H110.935L111.373 265.816L187.164 266.913V289.502L213.012 289.063L274.127 289.502L226.155 287.309V266.913H265.146L264.051 264.281H246.308V246.516L280.918 245.2V228.313H247.841V243.884H211.698V229.629H244.774L246.308 228.313H227.031V209.232L268.432 209.671L267.556 226.339H269.308L268.432 185.766L312.242 186.204V207.917L310.928 209.671H271.937V212.303L314.87 211.645V187.301H352.985V209.671H375.109L372.919 224.146V210.987H317.718L336.118 212.522L335.461 226.339H372.042L375.109 227.216H302.385V213.619H300.851V229.409L316.185 230.067V246.077L283.765 245.2L300.851 246.516V263.842H268.432L269.308 266.913H282.013L281.356 289.721H332.394V266.035H334.804L335.461 288.844L378.395 287.748L379.052 262.745H354.299V230.067L351.89 228.752L351.233 244.542L319.909 244.981L318.813 247.174L351.452 246.735V262.745L305.67 262.088V263.842L381.681 265.158V287.748H493.5" stroke="#E4E4E4" stroke-opacity="0.12"/>
<path d="M1514 294.002H1281.03L1328.88 291.368V271.609H1290.25V269.413H1309.13L1307.81 251.191H1274.22V233.627H1307.81V248.556H1344.25V234.725H1311.54L1310 232.749H1328.88V213.868H1287.17V231.432H1285.86V190.815H1243.05V213.868L1244.37 214.965H1283.88V217.161L1239.98 216.283L1240.63 190.815L1239.98 189.278M1239.98 189.278L1238.66 191.693L1202.22 192.133L1202.66 214.307L1180.27 214.965L1182.24 229.895V216.283L1236.68 215.624L1219.34 217.161V231.432H1183.34L1180.27 232.31H1252.71V218.259H1254.46L1254.68 234.066H1239.32V251.191L1271.37 250.532V251.191L1254.46 251.849V268.755L1285.86 269.413V271.609L1273.34 272.267V294.002H1222.85V270.511H1220.66L1219.34 294.002L1177.19 292.905L1176.09 267.437H1200.9V234.725L1203.1 233.627L1203.75 249.434L1235.37 249.873L1236.24 251.849H1203.75V267.437H1250.07V268.755L1173.46 270.511V292.905H1033.4H954.546L1002.08 290.932V270.316H962.87L963.746 267.904H981.928L981.27 249.701L947.099 249.043V232.155H980.175V247.507H1016.54V233.252H983.899L981.928 232.155H1001.2V212.856L959.804 213.294L960.461 230.182H958.489L959.804 189.389L915.994 190.266V211.978L916.651 213.294H956.299V215.926L913.365 215.268V190.924H875.031V213.294H853.126L855.317 228.427V214.391H910.079L892.555 215.926V230.182H856.631L853.783 230.839H925.632V217.242H927.165V233.033L912.051 233.471L911.832 249.481L944.251 249.043L926.946 249.92V267.246L959.365 267.904L959.146 270.755H945.784L946.661 293.344H895.622V269.658H893.212L892.774 292.687L849.841 291.371L849.402 266.149H873.936V233.471L876.127 232.375L876.784 247.946L908.327 248.823L908.984 251.017L876.784 249.92L876.127 266.149H922.565L922.127 267.685L846.336 268.781V291.371L820.488 290.932L759.373 291.371L807.345 289.177V268.781H768.354L769.449 266.149H787.192V248.385L752.582 247.069V230.182H785.659V245.753H821.802V231.497H788.726L787.192 230.182H806.469V211.101L765.068 211.54L765.944 228.208H764.192L765.068 187.634L721.258 188.073V209.785L722.572 211.54H761.563V214.171L718.63 213.514V189.169H680.515V211.54H658.391L660.581 226.015V212.856H715.782L697.382 214.391L698.039 228.208H661.458L658.391 229.085H731.115V215.487H732.649V231.278L717.315 231.936V247.946L749.735 247.069L732.649 248.385V265.711H765.068L764.192 268.781H751.487L752.144 291.59H701.106V267.904H698.696L698.039 290.713L655.105 289.616L654.448 264.614H679.201V231.936L681.61 230.62L682.267 246.411L713.591 246.85L714.687 249.043L682.048 248.604V264.614L727.83 263.956V265.711L651.819 267.027V289.616L635 289.177M1239.98 189.278L1242.39 185.546L1225.05 171.276L1258.86 186.424H1263.25C1264.12 186.498 1265.35 186.249 1263.25 184.668C1261.14 183.087 1258.27 180.936 1257.1 180.057L1275.1 186.424C1270.86 183.57 1262.24 177.379 1261.71 175.447C1261.18 173.515 1262.51 173.91 1263.25 174.349L1270.93 178.96C1272.69 179.765 1276.2 180.497 1276.2 176.984C1276.2 173.471 1276.2 170.105 1276.2 168.861L1281.69 189.937L1247 189.278C1247.07 187.888 1246.56 185.59 1243.93 187.522C1243.05 188.181 1242.39 189.059 1239.54 186.863C1237.25 185.107 1231.27 179.106 1228.56 176.325M1239.98 189.278C1238.92 186.293 1237.34 186.424 1236.68 186.863L1234.71 187.522L1232.51 183.131H1229.66V181.375L1226.68 176.984M1228.56 176.325C1215.83 175.667 1206.61 183.79 1204.41 185.766C1202.66 187.346 1203.39 188.034 1203.97 188.181L1206.61 185.546H1212.1V182.033C1212.61 182.033 1214.07 182.033 1215.83 182.033C1217.02 180.689 1222.75 178.403 1226.68 176.984M1228.56 176.325C1228.01 176.511 1227.38 176.734 1226.68 176.984M1264.12 166.226C1265 166.226 1267.11 166.226 1268.51 166.226C1271.5 168.861 1269.17 170.69 1267.64 171.276H1266.1C1257.25 171.641 1238.83 172.373 1236.02 172.373C1233.21 172.373 1233.98 171.202 1234.71 170.617C1244.59 170.031 1264.83 168.861 1266.76 168.861C1267.81 167.982 1267.2 166.738 1266.76 166.226L1266.1 164.25L1263.94 164.843M1264.12 166.226C1264.19 166.929 1261.81 167.251 1260.61 167.324C1253.29 167.543 1238.26 168.026 1236.68 168.202C1234.71 168.421 1238.66 166.226 1240.63 165.348C1241.29 162.713 1241.51 163.591 1243.05 163.591C1244.59 162.494 1243.93 162.274 1245.03 160.518C1246.12 158.542 1247 158.761 1248.98 160.518C1250.07 162.494 1250.73 160.737 1251.61 159.42C1254.03 157.225 1255.56 158.761 1256.44 161.616C1256.62 163.899 1257.68 163.884 1258.2 163.591C1258.42 162.86 1259.21 161.44 1260.61 161.616C1262.66 161.871 1263.59 163.461 1263.94 164.843M1264.12 166.226C1264.12 165.848 1264.07 165.36 1263.94 164.843M1266.1 163.591C1265.88 162.786 1266.06 161.045 1268.51 160.518M1268.51 160.518C1267.64 161.615 1266.76 162.933 1267.42 163.372C1268.08 163.811 1268.73 163.591 1269.17 162.274C1270.05 163.591 1273.12 166.226 1274.44 166.226C1275.54 166.226 1274.88 163.811 1272.9 161.616C1275.32 164.843 1279.71 169.739 1275.98 160.737C1277.08 162.494 1277.51 164.031 1279.05 165.348C1280.28 166.402 1279.56 162.128 1279.05 159.859C1279.49 161.689 1280.46 165.436 1280.81 165.787C1281.25 166.226 1284.1 164.47 1283.88 163.372C1283.66 162.274 1283.22 160.957 1283.88 159.859C1284.41 158.981 1286.88 155.688 1288.05 154.151C1288.34 153.492 1289.46 152.043 1291.56 151.516C1293.67 150.989 1304.59 147.345 1309.78 145.589L1317.47 143.174L1320.1 142.295C1321.2 142.076 1323.4 141.285 1323.4 139.88C1323.4 138.124 1324.49 132.855 1319 130.659C1313.52 128.464 1308.03 125.39 1301.44 129.562C1297.27 131.977 1296.17 135.27 1295.95 138.343C1294.37 138.343 1293.1 138.343 1292.66 138.343C1292.81 135.123 1294.9 128.288 1302.1 126.707C1295.6 124.951 1284.03 122.024 1279.05 120.78C1278.69 120.633 1277.82 120.472 1277.3 120.999C1276.64 121.658 1272.9 126.268 1274.88 138.563C1275.58 144.183 1275.9 146.613 1275.98 147.125L1271.15 151.516C1268.81 151.663 1263.77 151.56 1262.37 149.979C1262.02 146.467 1261.78 136.514 1261.71 131.977C1261.86 128.83 1262.85 121.658 1265.66 118.145M1268.51 160.518C1270.86 157.517 1276.15 150.858 1278.61 148.223C1281.07 145.589 1287.39 142.442 1290.25 141.198L1293.98 139.88C1297.56 137.685 1304.87 133.338 1305.39 133.513C1301.44 139.48 1285.64 140.539 1282.78 140.539C1279.93 140.539 1278.17 140.758 1273.56 141.637C1270.58 131.625 1274.51 122.39 1276.86 119.023C1274.59 118.877 1269.17 118.496 1265.66 118.145M1265.66 118.145L1261.05 117.706M1261.05 117.706C1260.54 118.438 1259.51 120.472 1259.51 122.756C1259.51 125.039 1259.07 141.856 1258.86 149.979L1245.03 152.395L1234.27 151.876M1261.05 117.706H1258.2M1226.8 151.516L1230.76 151.707M1234.27 151.876C1233.68 150.073 1232.56 145.281 1232.73 140.539C1232.91 135.797 1233.54 126.122 1233.83 121.877L1235.81 123.798M1234.27 151.876V153.273H1226.8C1223.95 148.809 1218.99 138.431 1221.98 132.635C1223.03 137.553 1223.29 141.417 1223.29 142.734C1223.51 146.32 1224.3 153.931 1225.71 155.688C1227.11 156.742 1228.2 157.737 1228.56 158.103C1229.29 158.322 1230.54 159.113 1229.66 160.518C1228.78 161.923 1223.88 170.031 1221.54 173.91C1220.15 175.74 1216.79 179.004 1214.51 177.423C1214.16 175.842 1217.73 171.641 1219.56 169.739L1228.34 158.981L1221.98 154.59L1190.58 131.318L1175.88 149.979L1195.85 163.591V158.103C1196.95 157.883 1198.93 158.053 1198.93 160.518M1234.27 151.876L1230.76 151.707M1254.46 122.756H1257.22V119.023M1254.46 122.756L1255.11 121.877M1254.46 122.756C1254.34 122.923 1254.16 123.145 1253.95 123.414M1254.46 122.756C1253.68 121.658 1252.49 118.848 1253.95 116.389C1255.78 113.315 1255.78 111.559 1254.46 110.022C1253.15 108.485 1251.61 108.046 1251.61 105.192C1251.61 104.399 1251.61 103.302 1251.61 102.118M1258.2 117.706C1259.64 114.589 1261.87 108.534 1261.38 105.192M1258.2 117.706C1259.59 116.901 1262.59 114.896 1263.47 113.315C1265.4 109.802 1262.88 106.436 1261.38 105.192M1258.2 117.706L1257.22 119.023M1258.2 117.706H1255.78L1255.11 121.877M1260.61 103.435C1258.33 101.152 1255.56 99.5568 1254.46 99.0445M1260.61 103.435C1253.24 102.206 1253.44 99.9959 1254.46 99.0445M1260.61 103.435C1261.02 103.848 1261.27 104.454 1261.38 105.192M1254.46 99.0445H1253.59M1257.22 119.023L1255.11 121.877M1236.68 124.652L1241.73 129.562C1243.05 130.879 1246.34 132.723 1248.98 129.562C1251.15 126.957 1252.97 124.671 1253.95 123.414M1236.68 124.652C1236.83 127.24 1238.57 132.635 1244.37 133.513C1251.61 134.611 1253.44 126.707 1253.95 123.414M1236.68 124.652L1235.81 123.798M1253.59 99.0445C1253.51 98.1663 1253.24 96.0148 1252.71 94.434C1252.18 92.8533 1250.88 93.0436 1250.29 93.3363L1251.61 95.9709C1251.61 96.9999 1251.61 98.6621 1251.61 100.362M1253.59 99.0445L1251.61 100.362M1251.61 100.362C1251.61 100.951 1251.61 101.545 1251.61 102.118M1251.61 102.118H1249.85V96.8491C1249.93 95.8245 1249.81 93.6876 1248.76 93.3363C1247.7 92.985 1247.59 95.5318 1247.66 96.8491V100.581L1240.2 96.8491L1239.24 96.41M1239.24 96.41L1237.34 95.5318C1236.54 95.0927 1235.85 94.1267 1239.54 93.7754C1242.39 93.3363 1243.93 94.2821 1241.51 95.3122C1240.46 95.8391 1239.56 96.2636 1239.24 96.41ZM1239.24 96.41L1224.39 103.435V106.29L1229 111.559L1235.37 117.706C1237.05 119.097 1241.34 121.307 1245.03 119.023C1247.84 115.686 1249.12 113.974 1249.42 113.535L1245.46 119.902C1245.1 120.707 1243.66 122.229 1240.85 121.877C1238.04 121.877 1236.32 121.585 1235.81 121.438V123.798M1198.93 160.518C1198.93 162.274 1198.85 164.323 1198.93 164.689M1198.93 160.518C1199.95 159.786 1202 159.069 1202 162.055M1202 162.055C1202 164.162 1202 165.86 1202 166.446M1202 162.055C1203.1 161.615 1205.29 161.308 1205.29 163.591C1205.29 165.875 1205.29 167.763 1205.29 168.421L1206.61 166.885C1207.49 165.787 1208.89 164.821 1207.49 169.739C1209.59 171.319 1212.17 173.764 1213.19 174.788L1206.61 170.836L1205.73 171.934C1205.15 172.227 1204.02 172.505 1204.19 171.276C1204.37 170.046 1203.39 170.031 1202.88 170.178C1202.44 170.544 1201.6 170.661 1201.78 168.202C1200.68 168.861 1198.71 169.958 1199.14 167.104C1197.83 167.763 1195.63 167.543 1196.29 165.128C1195.24 164.953 1192.78 164.762 1191.68 164.689L1175.44 152.614L1191.02 134.172L1212.1 149.321L1215.61 136.807C1215.83 134.758 1217.06 130.352 1220.22 129.122C1223.95 127.366 1231.41 123.195 1232.07 122.317C1230.98 125.61 1225.71 135.87 1230.76 151.707M1221.32 106.948C1223.37 104.167 1228.91 97.9468 1234.71 95.3122C1240.5 92.6777 1245.03 91.5799 1246.56 91.3604C1247.22 91.2872 1248.71 91.3604 1249.42 92.2386C1250.12 92.7655 1251.61 92.7509 1252.27 92.6777H1254.46C1253.66 92.019 1251.87 90.2187 1251.17 88.2867C1250.47 86.3547 1247.81 82.6517 1246.56 81.0417C1244.51 78.4071 1238.35 73.9283 1230.1 77.0898C1223.07 79.7244 1219.56 83.603 1218.68 85.213C1217.66 86.2376 1216 89.2088 1217.58 92.8972C1218.99 96.5856 1219.63 98.2395 1219.78 98.6054C1220.07 99.63 1220.53 101.855 1220 102.557C1219.47 103.26 1219.78 104.606 1220 105.192C1219.93 106.143 1220.09 107.826 1221.32 106.948Z" stroke="#E4E4E4" stroke-opacity="0.12"/>
<path d="M643 288.958L602.142 288.518L649.676 286.546V265.93H610.466L611.342 263.518H629.523L628.866 245.314L594.694 244.656V227.769H627.771V243.121H664.133V228.866H631.495L629.523 227.769H648.799V208.469L607.399 208.908L608.056 225.795H606.085L607.399 185.002L563.589 185.88V207.592L564.246 208.908H603.894V211.54L560.96 210.882V186.538H522.627V208.908H500.722L502.912 224.041V210.004H557.675L540.151 211.54V225.795H504.227L501.379 226.453H573.227V212.856H574.761V228.646L559.646 229.085L559.427 245.095L591.846 244.656L574.542 245.534V262.86L606.961 263.518L606.742 266.369H593.38L594.256 288.958H543.217V265.272H540.808L540.37 288.3L497.436 286.984L496.998 261.763H521.531V229.085L523.722 227.988L524.379 243.56L555.922 244.437L556.579 246.63L524.379 245.534L523.722 261.763H570.161L569.722 263.298L493.931 264.395V286.984" stroke="#E4E4E4" stroke-opacity="0.12"/>
<path d="M893.867 100.002L853.009 100.442L900.543 102.415V123.03H861.333L862.209 125.443H880.39L879.733 143.646L845.561 144.304V161.191H878.638V145.839H915V160.095H882.361L880.39 161.191H899.666V180.491L858.266 180.053L858.923 163.165H856.952L858.266 203.958L814.456 203.081V181.368L815.113 180.053H854.761V177.421L811.827 178.079V202.423H773.494V180.053H751.589L753.779 164.92V178.956H808.542L791.018 177.421V163.165H755.093L752.246 162.507H824.094V176.105H825.628V160.314L810.513 159.876L810.294 143.865L842.713 144.304L825.409 143.427V126.101L857.828 125.443L857.609 122.592H844.247L845.123 100.002H794.084V123.688H791.675L791.237 100.66L748.303 101.976L747.865 127.197H772.398V159.876L774.589 160.972L775.246 145.401L806.789 144.523L807.446 142.33L775.246 143.427L774.589 127.197H821.027L820.589 125.662L744.798 124.566V101.976" stroke="#E4E4E4" stroke-opacity="0.12"/>
<path d="M946.069 104.956L905.211 104.516L952.745 102.543V81.9276H913.535L914.411 79.5151H932.592L931.935 61.3119L897.763 60.6539V43.7666H930.84V59.1187H967.202V44.8632H934.563L932.592 43.7666H951.868V24.4668L910.468 24.9054L911.125 41.7927H909.154L910.468 1L866.658 1.87727V23.5895L867.315 24.9054H906.963V27.5372L864.029 26.8793V2.53521H825.696V24.9054H803.791L805.981 40.0382V26.002H860.744L843.22 27.5372V41.7927H807.295L804.448 42.4507H876.296V28.8531H877.829V44.6439L862.715 45.0825L862.496 61.0926L894.915 60.6539L877.61 61.5312V78.8571L910.03 79.5151L909.811 82.3662H896.449L897.325 104.956H846.286V81.2696H843.877L843.439 104.298L800.505 102.982L800.067 77.7606H824.6V45.0825L826.791 43.9859L827.448 59.5573L858.991 60.4346L859.648 62.6278L827.448 61.5312L826.791 77.7606H873.229L872.791 79.2958L797 80.3924V102.982" stroke="#E4E4E4" stroke-opacity="0.12"/>
<path d="M1075.87 189.958L1035.01 189.518L1082.54 187.546V166.93H1043.33L1044.21 164.518H1062.39L1061.73 146.314L1027.56 145.656V128.769H1060.64V144.121H1097V129.866H1064.36L1062.39 128.769H1081.67V109.469L1040.27 109.908L1040.92 126.795H1038.95L1040.27 86.0024L996.456 86.8797V108.592L997.113 109.908H1036.76V112.54L993.827 111.882V87.5377H955.494V109.908H933.589L935.779 125.041V111.004H990.542L973.018 112.54V126.795H937.093L934.246 127.453H1006.09V113.856H1007.63V129.646L992.513 130.085L992.294 146.095L1024.71 145.656L1007.41 146.534V163.86L1039.83 164.518L1039.61 167.369H1026.25L1027.12 189.958H976.084V166.272H973.675L973.237 189.3L930.303 187.984L929.865 162.763H954.398V130.085L956.589 128.988L957.246 144.56L988.789 145.437L989.446 147.63L957.246 146.534L956.589 162.763H1003.03L1002.59 164.298L926.798 165.395V187.984" stroke="#E4E4E4" stroke-opacity="0.12"/>
<path d="M1160.87 190.002L1120.01 190.442L1167.54 192.415V213.03H1128.33L1129.21 215.443H1147.39L1146.73 233.646L1112.56 234.304V251.191H1145.64V235.839H1182V250.095H1149.36L1147.39 251.191H1166.67V270.491L1125.27 270.053L1125.92 253.165H1123.95L1125.27 293.958L1081.46 293.081V271.368L1082.11 270.053H1121.76V267.421L1078.83 268.079V292.423H1040.49V270.053H1018.59L1020.78 254.92V268.956H1075.54L1058.02 267.421V253.165H1022.09L1019.25 252.507H1091.09V266.105H1092.63V250.314L1077.51 249.876L1077.29 233.865L1109.71 234.304L1092.41 233.427V216.101L1124.83 215.443L1124.61 212.592H1111.25L1112.12 190.002H1061.08V213.688H1058.67L1058.24 190.66L1015.3 191.976L1014.86 217.197H1039.4V249.876L1041.59 250.972L1042.25 235.401L1073.79 234.523L1074.45 232.33L1042.25 233.427L1041.59 217.197H1088.03L1087.59 215.662L1011.8 214.566V191.976" stroke="#E4E4E4" stroke-opacity="0.12"/>
</svg>
