<svg width="993" height="220" viewBox="0 0 993 220" fill="none" xmlns="http://www.w3.org/2000/svg">
<path d="M928.527 219L976.383 216.365V196.606H937.747V194.411H956.626L955.309 176.188H921.722V158.625H955.309V173.554H991.75V159.722H959.041L957.504 157.746H976.383V138.865H934.674V156.429H933.357V115.813H890.549V138.865L891.867 139.963H931.381V142.158L887.476 141.28L888.135 115.813L887.476 114.276M887.476 114.276L886.159 116.691L849.718 117.13L850.157 139.304L827.766 139.963L829.741 154.892V141.28L884.183 140.622L866.841 142.158V156.429H830.839L827.766 157.307H900.209V143.256H901.965L902.184 159.064H886.818V176.188L918.868 175.53V176.188L901.965 176.847V193.752L933.357 194.411V196.606L920.844 197.265V219H870.353V195.508H868.158L866.841 219L824.692 217.902L823.595 192.435H848.401V159.722L850.596 158.625L851.255 174.432L882.866 174.871L883.744 176.847H851.255V192.435H897.574V193.752L820.96 195.508V217.902L755.404 216.034H676.546L724.08 214.061V193.445H684.87L685.746 191.033H703.928L703.27 172.83L669.099 172.172V155.284H702.175V170.636H738.538V156.381H705.899L703.928 155.284H723.204V135.985L681.804 136.423L682.461 153.311H680.489L681.804 112.518L637.994 113.395V135.107L638.651 136.423H678.299V139.055L635.365 138.397V114.053H597.031V136.423H575.126L577.317 151.556V137.52H632.079L614.555 139.055V153.311H578.631L575.783 153.968H647.632V140.371H649.165V156.162L634.051 156.6L633.832 172.61L666.251 172.172L648.946 173.049V190.375L681.365 191.033L681.146 193.884H667.784L668.661 216.473H617.622V192.787H615.212L614.774 215.816L571.841 214.5L571.402 189.278H595.936V156.6L598.127 155.504L598.784 171.075L630.327 171.952L630.984 174.146L598.784 173.049L598.127 189.278H644.565L644.127 190.814L568.336 191.91V214.5L542.488 214.061L481.373 214.5L529.345 212.307V191.91H490.354L491.449 189.278H509.192V171.514L474.582 170.198V153.311H507.659V168.882H543.802V154.626H510.726L509.192 153.311H528.469V134.23L487.068 134.669L487.944 151.337H486.192L487.068 110.763L443.258 111.202V132.914L444.572 134.669H483.563V137.3L440.63 136.643V112.298H402.515V134.669H380.391L382.581 149.144V135.985H437.782L419.382 137.52L420.039 151.337H383.458L380.391 152.214H453.115V138.616H454.649V154.407L439.315 155.065V171.075L471.735 170.198L454.649 171.514V188.84H487.068L486.192 191.91H473.487L474.144 214.719H423.106V191.033H420.696L420.039 213.842L377.105 212.745L376.448 187.743H401.201V155.065L403.61 153.749L404.267 169.54L435.591 169.979L436.687 172.172L404.048 171.733V187.743L449.83 187.085V188.84L373.819 190.156V212.745H262M887.476 114.276L889.891 110.544L872.549 96.2731L906.355 111.422H910.746C911.624 111.495 912.853 111.246 910.746 109.666C908.638 108.085 905.77 105.933 904.599 105.055L922.6 111.422C918.356 108.568 909.736 102.377 909.209 100.445C908.682 98.5125 910.014 98.9077 910.746 99.3468L918.429 103.957C920.185 104.762 923.698 105.494 923.698 101.981C923.698 98.4686 923.698 95.1022 923.698 93.8581L929.186 114.935L894.501 114.276C894.574 112.886 894.062 110.588 891.428 112.52C890.55 113.178 889.891 114.056 887.037 111.861C884.754 110.105 878.768 104.104 876.061 101.323M887.476 114.276C886.422 111.29 884.842 111.422 884.183 111.861L882.208 112.52L880.012 108.129H877.159V106.372L874.184 101.981M876.061 101.323C863.329 100.664 854.109 108.787 851.913 110.763C850.157 112.344 850.889 113.032 851.474 113.178L854.109 110.544H859.597V107.031C860.109 107.031 861.572 107.031 863.329 107.031C864.523 105.687 870.248 103.4 874.184 101.981M876.061 101.323C875.514 101.509 874.876 101.732 874.184 101.981M911.624 91.2235C912.502 91.2235 914.609 91.2235 916.014 91.2235C919 93.8581 916.673 95.6877 915.136 96.2731H913.599C904.745 96.639 886.335 97.3709 883.525 97.3709C880.715 97.3709 881.476 96.2 882.208 95.6145C892.086 95.029 912.326 93.8581 914.258 93.8581C915.312 92.9799 914.697 91.7358 914.258 91.2235L913.599 89.2476L911.44 89.841M911.624 91.2235C911.686 91.9261 909.308 92.2481 908.112 92.3213C900.794 92.5408 885.764 93.0238 884.183 93.1995C882.208 93.419 886.159 91.2235 888.135 90.3454C888.793 87.7108 889.013 88.589 890.549 88.589C892.086 87.4913 891.428 87.2717 892.525 85.5153C893.623 83.5394 894.501 83.7589 896.477 85.5153C897.574 87.4912 898.233 85.7349 899.111 84.4176C901.526 82.2221 903.062 83.7589 903.94 86.6131C904.116 88.8964 905.184 88.8817 905.697 88.589C905.916 87.8572 906.707 86.4374 908.112 86.6131C910.157 86.8688 911.086 88.4586 911.44 89.841M911.624 91.2235C911.624 90.8453 911.572 90.3576 911.44 89.841M913.599 88.589C913.38 87.784 913.556 86.0422 916.014 85.5153M916.014 85.5153C915.136 86.6131 914.258 87.9303 914.917 88.3694C915.575 88.8085 916.234 88.589 916.673 87.2717C917.551 88.589 920.624 91.2235 921.941 91.2235C923.039 91.2235 922.38 88.8085 920.405 86.6131C922.819 89.841 927.21 94.7363 923.478 85.7349C924.576 87.4912 925.015 89.0281 926.551 90.3454C927.781 91.3992 927.064 87.1253 926.551 84.8567C926.99 86.6862 927.956 90.4332 928.308 90.7844C928.747 91.2235 931.6 89.4672 931.381 88.3694C931.161 87.2717 930.722 85.9544 931.381 84.8567C931.908 83.9785 934.381 80.6853 935.552 79.1484C935.845 78.4898 936.957 77.0408 939.064 76.5139C941.172 75.987 952.089 72.3425 957.285 70.5861L964.968 68.1711L967.602 67.2929C968.7 67.0733 970.895 66.283 970.895 64.8779C970.895 63.1215 971.993 57.8524 966.505 55.6569C961.017 53.4614 955.529 50.3878 948.943 54.5592C944.772 56.9742 943.674 60.2674 943.455 63.341C941.874 63.341 940.601 63.341 940.162 63.341C940.308 60.121 942.401 53.2858 949.601 51.705C943.104 49.9487 931.527 47.0214 926.551 45.7773C926.186 45.6309 925.322 45.4699 924.795 45.9968C924.137 46.6555 920.405 51.2659 922.38 63.5606C923.083 69.181 923.405 71.6106 923.478 72.1229L918.649 76.5139C916.307 76.6602 911.273 76.5578 909.868 74.977C909.516 71.4643 909.282 61.5115 909.209 56.9742C909.355 53.8273 910.351 46.6555 913.16 43.1427M916.014 85.5153C918.356 82.5148 923.654 75.8552 926.112 73.2207C928.571 70.5861 934.893 67.4392 937.747 66.1951L941.479 64.8779C945.064 62.6824 952.367 58.3354 952.894 58.511C948.943 64.4776 933.137 65.5365 930.283 65.5365C927.43 65.5365 925.673 65.7561 921.063 66.6342C918.078 56.6229 922.015 47.3873 924.356 44.0209C922.088 43.8745 916.673 43.494 913.16 43.1427M913.16 43.1427L908.55 42.7036M908.55 42.7036C908.038 43.4354 907.014 45.4699 907.014 47.7532C907.014 50.0365 906.575 66.8538 906.355 74.977L892.525 77.3921L881.769 76.8736M908.55 42.7036H905.697M874.305 76.5139L878.256 76.7043M881.769 76.8736C881.183 75.0705 880.056 70.2787 880.232 65.5365C880.408 60.7943 881.037 51.1196 881.33 46.875L883.305 48.796M881.769 76.8736V78.2702H874.305C871.451 73.8061 866.49 63.4289 869.475 57.6328C870.529 62.5507 870.792 66.4147 870.792 67.732C871.012 71.3179 871.802 78.9289 873.207 80.6853C874.612 81.7391 875.695 82.7344 876.061 83.1003C876.793 83.3198 878.037 84.1102 877.159 85.5153C876.28 86.9204 871.378 95.029 869.036 98.9077C867.646 100.737 864.294 104.001 862.011 102.42C861.66 100.84 865.231 96.639 867.061 94.7363L875.841 83.9785L869.475 79.5875L838.083 56.3155L823.375 74.977L843.352 88.589V83.1003C844.45 82.8807 846.425 83.0501 846.425 85.5153M881.769 76.8736L878.256 76.7043M901.965 47.7532H904.723V44.0209M901.965 47.7532L902.614 46.875M901.965 47.7532C901.836 47.9209 901.664 48.1428 901.453 48.4118M901.965 47.7532C901.184 46.6555 899.99 43.8452 901.453 41.3863C903.282 38.3127 903.282 36.5563 901.965 35.0195C900.648 33.4826 899.111 33.0435 899.111 30.1894C899.111 29.397 899.111 28.2997 899.111 27.1158M905.697 42.7036C907.135 39.5862 909.369 33.5321 908.875 30.1894M905.697 42.7036C907.087 41.8986 910.087 39.8934 910.965 38.3127C912.897 34.7999 910.377 31.4335 908.875 30.1894M905.697 42.7036L904.723 44.0209M905.697 42.7036H903.282L902.614 46.875M908.112 28.433C905.828 26.1497 903.062 24.5544 901.965 24.0421M908.112 28.433C900.736 27.2036 900.94 24.9935 901.965 24.0421M908.112 28.433C908.524 28.8459 908.766 29.4516 908.875 30.1894M901.965 24.0421H901.087M904.723 44.0209L902.614 46.875M884.183 49.6498L889.232 54.5591C890.55 55.8764 893.842 57.7206 896.477 54.5591C898.647 51.9551 900.469 49.6688 901.453 48.4118M884.183 49.6498C884.33 52.2376 886.071 57.6328 891.867 58.511C899.111 59.6087 900.941 51.705 901.453 48.4118M884.183 49.6498L883.305 48.796M901.087 24.0421C901.014 23.1639 900.735 21.0123 900.209 19.4316C899.682 17.8509 898.379 18.0411 897.794 18.3339L899.111 20.9684C899.111 21.9975 899.111 23.6597 899.111 25.3594M901.087 24.0421L899.111 25.3594M899.111 25.3594C899.111 25.9486 899.111 26.5423 899.111 27.1158M899.111 27.1158H897.355V21.8466C897.428 20.8221 897.311 18.6851 896.257 18.3339C895.203 17.9826 895.086 20.5294 895.16 21.8466V25.5789L887.696 21.8466L886.744 21.4075M886.744 21.4075L884.842 20.5293C884.037 20.0903 883.349 19.1243 887.037 18.773C889.891 18.3339 891.428 19.2796 889.013 20.3098C887.959 20.8367 887.062 21.2612 886.744 21.4075ZM886.744 21.4075L871.89 28.433V31.2872L876.5 36.5563L882.866 42.7036C884.549 44.0941 888.837 46.3042 892.525 44.0209C895.335 40.6838 896.623 38.9713 896.916 38.5322L892.964 44.8991C892.598 45.7041 891.164 47.2263 888.354 46.875C885.544 46.875 883.817 46.5823 883.305 46.4359V48.796M846.425 85.5153C846.425 87.2717 846.352 89.3208 846.425 89.6867M846.425 85.5153C847.45 84.7835 849.499 84.0663 849.499 87.0521M849.499 87.0521C849.499 89.1598 849.499 90.8576 849.499 91.4431M849.499 87.0521C850.596 86.6131 852.791 86.3057 852.791 88.589C852.791 90.8723 852.791 92.7604 852.791 93.419L854.109 91.8822C854.987 90.7844 856.392 89.8184 854.987 94.7363C857.094 96.317 859.67 98.7613 860.694 99.7859L854.109 95.834L853.23 96.9318C852.645 97.2245 851.518 97.5026 851.694 96.2731C851.869 95.0437 850.889 95.029 850.377 95.1754C849.938 95.5413 849.103 95.6584 849.279 93.1994C848.181 93.8581 846.206 94.9558 846.645 92.1017C845.328 92.7604 843.132 92.5408 843.791 90.1258C842.737 89.9502 840.279 89.7599 839.181 89.6867L822.936 77.6116L838.522 59.1696L859.597 74.3184L863.109 61.8042C863.329 59.7551 864.558 55.3495 867.719 54.12C871.451 52.3637 878.915 48.1923 879.573 47.3141C878.476 50.6073 873.207 60.8678 878.256 76.7043M868.817 31.9458C870.866 29.1649 876.412 22.9444 882.208 20.3098C888.003 17.6752 892.525 16.5775 894.062 16.358C894.72 16.2848 896.213 16.358 896.916 17.2361C897.618 17.7631 899.111 17.7484 899.77 17.6752H901.965C901.16 17.0166 899.374 15.2163 898.672 13.2843C897.969 11.3523 895.306 7.64924 894.062 6.03922C892.013 3.40466 885.852 -1.07411 877.598 2.08737C870.573 4.72194 867.061 8.6006 866.182 10.2106C865.158 11.2352 863.504 14.2064 865.085 17.8948C866.49 21.5832 867.134 23.2371 867.28 23.603C867.573 24.6275 868.026 26.8523 867.5 27.5548C866.973 28.2574 867.28 29.604 867.5 30.1894C867.426 31.1408 867.587 32.824 868.817 31.9458Z" stroke="#303334" stroke-opacity="0.8"/>
<path d="M361.069 208.956L320.211 208.516L367.745 206.543V185.928H328.535L329.411 183.515H347.592L346.935 165.312L312.763 164.654V147.767H345.84V163.119H382.202V148.863H349.563L347.592 147.767H366.868V128.467L325.468 128.905L326.125 145.793H324.154L325.468 105L281.658 105.877V127.59L282.315 128.905H321.963V131.537L279.029 130.879V106.535H240.696V128.905H218.791L220.981 144.038V130.002H275.744L258.22 131.537V145.793H222.295L219.448 146.451H291.296V132.853H292.829V148.644L277.715 149.082L277.496 165.093L309.915 164.654L292.61 165.531V182.857L325.03 183.515L324.811 186.366H311.449L312.325 208.956H261.286V185.27H258.877L258.439 208.298L215.505 206.982L215.067 181.761H239.6V149.082L241.791 147.986L242.448 163.557L273.991 164.435L274.648 166.628L242.448 165.531L241.791 181.761H288.229L287.791 183.296L212 184.392V206.982" stroke="#303334" stroke-opacity="0.2"/>
<path d="M113.133 24L153.991 24.4398L106.458 26.4125V47.0282H145.668L144.791 49.4406H126.61L127.267 67.6439L161.439 68.3018V85.1891H128.363V69.837H92.0003V84.0925H124.639L126.61 85.1891H107.334V104.489L148.734 104.05L148.077 87.163H150.049L148.734 127.956L192.544 127.078V105.366L191.887 104.05H152.239V101.418L195.173 102.076V126.421H233.507V104.05H255.412L253.221 88.9175V102.954H198.459L215.983 101.418V87.163H251.907L254.754 86.505H182.906V100.103H181.373V84.3119L196.487 83.8732L196.706 67.8632L164.287 68.3018L181.592 67.4245V50.0986L149.172 49.4406L149.391 46.5895H162.753L161.877 24H212.916V47.6861H215.325L215.764 24.6579L258.697 25.9738L259.135 51.1952H234.602V83.8732L232.411 84.9698L231.754 69.3984L200.211 68.5211L199.554 66.3279L231.754 67.4245L232.411 51.1952H185.973L186.411 49.66L262.202 48.5634V25.9738" stroke="#303334" stroke-opacity="0.2"/>
<path d="M22.1334 208.956L62.9915 208.516L15.4576 206.543V185.928H54.6675L53.7914 183.515H35.6102L36.2674 165.312L70.4391 164.654V147.767H37.3626V163.119H1.00031V148.863H33.6388L35.6102 147.767H16.3338V128.467L57.7343 128.905L57.0771 145.793H59.0486L57.7343 105L101.544 105.877V127.59L100.887 128.905H61.239V131.537L104.173 130.879V106.535H142.507V128.905H164.412L162.221 144.038V130.002H107.459L124.983 131.537V145.793H160.907L163.754 146.451H91.906V132.853H90.3727V148.644L105.487 149.082L105.706 165.093L73.2868 164.654L90.5917 165.531V182.857L58.1724 183.515L58.3914 186.366H71.7534L70.8773 208.956H121.916V185.27H124.325L124.764 208.298L167.697 206.982L168.135 181.761H143.602V149.082L141.411 147.986L140.754 163.557L109.211 164.435L108.554 166.628L140.754 165.531L141.411 181.761H94.9727L95.4109 183.296L171.202 184.392V206.982" stroke="#303334" stroke-opacity="0.2"/>
</svg>
