<svg width="160" height="166" viewBox="0 0 160 166" fill="none" xmlns="http://www.w3.org/2000/svg">
<path d="M2 148.13C2.16231 144.722 3.26601 136.249 6.38233 129.627C10.2777 121.349 16.1209 116.967 22.9378 115.019C28.3914 113.461 40.7918 110.474 46.3103 109.176C54.7503 106.904 68.5141 97.5872 56.0488 78.4997C43.3887 59.5096 45.3364 46.3626 49.2318 34.1894C53.1272 22.0163 64.3265 14.2254 73.0912 12.7647C81.8559 11.3039 88.6728 10.33 101.333 4C101.82 7.89541 102.794 10.817 97.4375 16.1731C105.715 21.5293 124.705 54.1534 103.768 78.4997C91.1075 93.1075 97.9244 106.254 111.071 109.176C124.218 112.098 149.052 112.098 155.382 138.392C158.79 148.13 157.329 148.13 149.539 152.026C141.748 155.921 95.9767 172.963 31.7025 157.869" stroke="#E6E7E9" stroke-width="4" stroke-linecap="round"/>
</svg>
