<svg width="172" height="106" viewBox="0 0 172 106" fill="none" xmlns="http://www.w3.org/2000/svg">
<path id="Vector 5" d="M22.1334 0.999992L62.9915 1.43977L15.4576 3.41247V24.0282H54.6675L53.7914 26.4406H35.6102L36.2674 44.6439L70.4391 45.3018V62.1891H37.3626V46.837H1.00031V61.0925H33.6388L35.6102 62.1891H16.3338V81.4889L57.7343 81.0503L57.0771 64.163H59.0486L57.7343 104.956L101.544 104.078V82.3662L100.887 81.0503H61.239V78.4185L104.173 79.0764V103.421H142.507V81.0503H164.412L162.221 65.9175V79.9537H107.459L124.983 78.4185V64.163H160.907L163.754 63.505H91.906V77.1026H90.3727V61.3119L105.487 60.8732L105.706 44.8632L73.2868 45.3018L90.5917 44.4245V27.0986L58.1724 26.4406L58.3914 23.5895H71.7534L70.8773 0.999992H121.916V24.6861H124.325L124.764 1.65794L167.697 2.97384L168.135 28.1952H143.602V60.8732L141.411 61.9698L140.754 46.3984L109.211 45.5211L108.554 43.3279L140.754 44.4245L141.411 28.1952H94.9727L95.4109 26.66L171.202 25.5634V2.97384" stroke="#303334" stroke-opacity="0.2"/>
</svg>
