<svg width="172" height="106" viewBox="0 0 172 106" fill="none" xmlns="http://www.w3.org/2000/svg">
<path id="Vector 3" d="M21.9996 104.956L62.8577 104.516L15.3238 102.543V81.9276H54.5338L53.6576 79.5151H35.4764L36.1336 61.3119L70.3054 60.6539V43.7666H37.2288V59.1187H0.866516V44.8632H33.505L35.4764 43.7666H16.2V24.4668L57.6005 24.9054L56.9433 41.7927H58.9148L57.6005 1L101.41 1.87727V23.5895L100.753 24.9054H61.1053V27.5372L104.039 26.8793V2.53521H142.373V24.9054H164.278L162.087 40.0382V26.002H107.325L124.849 27.5372V41.7927H160.773L163.621 42.4507H91.7722V28.8531H90.2389V44.6439L105.353 45.0825L105.572 61.0926L73.153 60.6539L90.4579 61.5312V78.8571L58.0386 79.5151L58.2576 82.3662H71.6197L70.7435 104.956H121.782V81.2696H124.192L124.63 104.298L167.564 102.982L168.002 77.7606H143.468V45.0825L141.278 43.9859L140.62 59.5573L109.077 60.4346L108.42 62.6278L140.62 61.5312L141.278 77.7606H94.839L95.2771 79.2958L171.068 80.3924V102.982" stroke="#303334" stroke-opacity="0.8"/>
</svg>
