<svg width="172" height="61" viewBox="0 0 172 61" fill="none" xmlns="http://www.w3.org/2000/svg">
<path id="Vector 4" d="M22.1334 -44L62.9915 -43.5603L15.4576 -41.5876V-20.9719H54.6675L53.7914 -18.5594H35.6102L36.2674 -0.356178L70.4391 0.301765V17.1891H37.3626V1.83698H1.00031V16.0925H33.6388L35.6102 17.1891H16.3338V36.4889L57.7343 36.0503L57.0771 19.1629H59.0486L57.7343 59.9557L101.544 59.0784V37.3662L100.887 36.0503H61.239V33.4185L104.173 34.0764V58.4205H142.507V36.0503H164.412L162.221 20.9175V34.9537H107.459L124.983 33.4185V19.1629H160.907L163.754 18.505H91.906V32.1026H90.3727V16.3118L105.487 15.8732L105.706 -0.136864L73.2868 0.301765L90.5917 -0.575493V-17.9015L58.1724 -18.5594L58.3914 -21.4105H71.7534L70.8773 -44H121.916V-20.3139H124.325L124.764 -43.3421L167.697 -42.0262L168.135 -16.8049H143.602V15.8732L141.411 16.9698L140.754 1.39835L109.211 0.52108L108.554 -1.67208L140.754 -0.575493L141.411 -16.8049H94.9727L95.4109 -18.3401L171.202 -19.4367V-42.0262" stroke="#303334" stroke-opacity="0.8"/>
</svg>
