<svg width="172" height="106" viewBox="0 0 172 106" fill="none" xmlns="http://www.w3.org/2000/svg">
<path id="Vector 3" d="M150.069 104.956L109.211 104.516L156.745 102.543V81.9276H117.535L118.411 79.5151H136.592L135.935 61.3119L101.763 60.6539V43.7666H134.84V59.1187H171.202V44.8632H138.563L136.592 43.7666H155.868V24.4668L114.468 24.9054L115.125 41.7927H113.154L114.468 1L70.6579 1.87727V23.5895L71.3151 24.9054H110.963V27.5372L68.0293 26.8793V2.53521H29.6956V24.9054H7.79056L9.98108 40.0382V26.002H64.7436L47.2195 27.5372V41.7927H11.2953L8.44769 42.4507H80.2961V28.8531H81.8294V44.6439L66.715 45.0825L66.4959 61.0926L98.9153 60.6539L81.6104 61.5312V78.8571L114.03 79.5151L113.811 82.3662H100.449L101.325 104.956H50.2863V81.2696H47.8767L47.4386 104.298L4.50482 102.982L4.06671 77.7606H28.6003V45.0825L30.7908 43.9859L31.448 59.5573L62.9911 60.4346L63.6483 62.6278L31.448 61.5312L30.7908 77.7606H77.2294L76.7913 79.2958L1 80.3924V102.982" stroke="#303334" stroke-opacity="0.2"/>
</svg>
