<svg width="172" height="106" viewBox="0 0 172 106" fill="none" xmlns="http://www.w3.org/2000/svg">
<path id="Vector 4" d="M22.1334 104.956L62.9915 104.516L15.4576 102.543V81.9276H54.6675L53.7914 79.5151H35.6102L36.2674 61.3119L70.4391 60.6539V43.7666H37.3626V59.1187H1.00031V44.8632H33.6388L35.6102 43.7666H16.3338V24.4668L57.7343 24.9054L57.0771 41.7927H59.0486L57.7343 1L101.544 1.87727V23.5895L100.887 24.9054H61.239V27.5372L104.173 26.8793V2.53521H142.507V24.9054H164.412L162.221 40.0382V26.002H107.459L124.983 27.5372V41.7927H160.907L163.754 42.4507H91.906V28.8531H90.3727V44.6439L105.487 45.0825L105.706 61.0926L73.2868 60.6539L90.5917 61.5312V78.8571L58.1724 79.5151L58.3914 82.3662H71.7534L70.8773 104.956H121.916V81.2696H124.325L124.764 104.298L167.697 102.982L168.135 77.7606H143.602V45.0825L141.411 43.9859L140.754 59.5573L109.211 60.4346L108.554 62.6278L140.754 61.5312L141.411 77.7606H94.9727L95.4109 79.2958L171.202 80.3924V102.982" stroke="#303334" stroke-opacity="0.2"/>
</svg>
